<mxfile host="app.diagrams.net" agent="Mozilla/5.0 (Windows NT 10.0; Win64; x64) AppleWebKit/537.36 (KHTML, like Gecko) Chrome/137.0.0.0 Safari/537.36" version="27.1.6">
  <diagram name="Page-1" id="SvgT646PCz_LbrXrvip8">
    <mxGraphModel dx="3979" dy="3670" grid="0" gridSize="10" guides="1" tooltips="1" connect="1" arrows="1" fold="1" page="0" pageScale="1" pageWidth="850" pageHeight="1100" background="light-dark(#FFFFFF,#FFFFFF)" math="0" shadow="0">
      <root>
        <mxCell id="0" />
        <mxCell id="1" parent="0" />
        <mxCell id="RVSWrcI1aM4XqQ-jTtqT-137" value="" style="group" parent="1" vertex="1" connectable="0">
          <mxGeometry x="1120" y="-1500" width="132" height="88" as="geometry" />
        </mxCell>
        <mxCell id="RVSWrcI1aM4XqQ-jTtqT-138" value="" style="rhombus;whiteSpace=wrap;html=1;strokeWidth=3;strokeColor=light-dark(#000000,#008000);fillColor=light-dark(#FFFFFF,#FFFFFF);gradientColor=light-dark(#000000,#58FF4E);gradientDirection=radial;" parent="RVSWrcI1aM4XqQ-jTtqT-137" vertex="1">
          <mxGeometry width="132" height="88" as="geometry" />
        </mxCell>
        <mxCell id="RVSWrcI1aM4XqQ-jTtqT-139" value="Possui" style="text;html=1;align=center;verticalAlign=middle;whiteSpace=wrap;rounded=0;fillColor=none;fontColor=light-dark(#000000,#000000);fontSize=15;" parent="RVSWrcI1aM4XqQ-jTtqT-137" vertex="1">
          <mxGeometry x="16.5" y="29" width="99" height="30" as="geometry" />
        </mxCell>
        <mxCell id="RVSWrcI1aM4XqQ-jTtqT-290" value="" style="group" parent="1" vertex="1" connectable="0">
          <mxGeometry x="1133.5" y="-1659" width="90.5" height="29" as="geometry" />
        </mxCell>
        <mxCell id="RVSWrcI1aM4XqQ-jTtqT-291" value="" style="strokeWidth=2;html=1;shape=mxgraph.flowchart.terminator;whiteSpace=wrap;strokeColor=light-dark(#000000,#C0B652);gradientColor=light-dark(#000000,#CECE08);fillColor=light-dark(#FFFFFF,#FFFFFF);gradientDirection=radial;" parent="RVSWrcI1aM4XqQ-jTtqT-290" vertex="1">
          <mxGeometry width="90.5" height="29" as="geometry" />
        </mxCell>
        <mxCell id="RVSWrcI1aM4XqQ-jTtqT-292" value="Cidade" style="text;html=1;align=center;verticalAlign=middle;whiteSpace=wrap;rounded=0;fillColor=none;fontColor=light-dark(#000000,#000000);fontSize=12;" parent="RVSWrcI1aM4XqQ-jTtqT-290" vertex="1">
          <mxGeometry x="27" y="9.870000000000005" width="36.5" height="9.25" as="geometry" />
        </mxCell>
        <mxCell id="0nftsuG1MuF5SbFmwNqy-8" value="" style="group" parent="1" vertex="1" connectable="0">
          <mxGeometry x="1133.5" y="-1594" width="120" height="60" as="geometry" />
        </mxCell>
        <mxCell id="0nftsuG1MuF5SbFmwNqy-9" value="" style="rounded=0;whiteSpace=wrap;html=1;strokeColor=light-dark(#000000,#000099);perimeterSpacing=0;strokeWidth=3;fillColor=light-dark(#FFFFFF,#FFFFFF);gradientColor=none;gradientDirection=radial;" parent="0nftsuG1MuF5SbFmwNqy-8" vertex="1">
          <mxGeometry width="120" height="60" as="geometry" />
        </mxCell>
        <mxCell id="0nftsuG1MuF5SbFmwNqy-10" value="" style="rounded=0;whiteSpace=wrap;html=1;strokeColor=light-dark(#000000,#000099);perimeterSpacing=0;strokeWidth=3;fillColor=light-dark(#FFFFFF,#FFFFFF);gradientColor=light-dark(#000000,#80A6D9);gradientDirection=radial;" parent="0nftsuG1MuF5SbFmwNqy-8" vertex="1">
          <mxGeometry x="7.5" y="7" width="105" height="46" as="geometry" />
        </mxCell>
        <mxCell id="0nftsuG1MuF5SbFmwNqy-11" value="Localização" style="text;html=1;align=center;verticalAlign=middle;whiteSpace=wrap;rounded=0;fillColor=none;fontColor=light-dark(#000000,#000000);fontSize=15;" parent="0nftsuG1MuF5SbFmwNqy-8" vertex="1">
          <mxGeometry x="10.5" y="15" width="99" height="30" as="geometry" />
        </mxCell>
        <mxCell id="jD3ps9fvQnrJGagMhBuL-15" value="" style="group" parent="1" vertex="1" connectable="0">
          <mxGeometry x="1120.25" y="-1771" width="120" height="60" as="geometry" />
        </mxCell>
        <mxCell id="jD3ps9fvQnrJGagMhBuL-16" value="" style="rounded=0;whiteSpace=wrap;html=1;strokeColor=light-dark(#000000,#000099);perimeterSpacing=0;strokeWidth=3;fillColor=light-dark(#FFFFFF,#FFFFFF);gradientColor=light-dark(#000000,#6666FF);gradientDirection=radial;" parent="jD3ps9fvQnrJGagMhBuL-15" vertex="1">
          <mxGeometry width="120" height="60" as="geometry" />
        </mxCell>
        <mxCell id="jD3ps9fvQnrJGagMhBuL-17" value="Propriedade" style="text;html=1;align=center;verticalAlign=middle;whiteSpace=wrap;rounded=0;fillColor=none;fontColor=light-dark(#000000,#000000);fontSize=15;" parent="jD3ps9fvQnrJGagMhBuL-15" vertex="1">
          <mxGeometry x="10.5" y="15" width="99" height="30" as="geometry" />
        </mxCell>
        <mxCell id="jVbXVxqvNYoYon0j-dt1-6" value="" style="group" parent="1" vertex="1" connectable="0">
          <mxGeometry x="1275.5" y="-1667" width="90.5" height="29" as="geometry" />
        </mxCell>
        <mxCell id="jVbXVxqvNYoYon0j-dt1-7" value="" style="strokeWidth=2;html=1;shape=mxgraph.flowchart.terminator;whiteSpace=wrap;strokeColor=light-dark(#000000,#78B300);gradientColor=light-dark(#000000,#A6E500);fillColor=light-dark(#FFFFFF,#FFFFFF);gradientDirection=radial;" parent="jVbXVxqvNYoYon0j-dt1-6" vertex="1">
          <mxGeometry width="90.5" height="29" as="geometry" />
        </mxCell>
        <mxCell id="jVbXVxqvNYoYon0j-dt1-8" value="Cidade" style="text;html=1;align=center;verticalAlign=middle;whiteSpace=wrap;rounded=0;fillColor=none;fontColor=light-dark(#000000,#000000);fontSize=12;" parent="jVbXVxqvNYoYon0j-dt1-6" vertex="1">
          <mxGeometry x="27" y="9.870000000000005" width="36.5" height="9.25" as="geometry" />
        </mxCell>
        <mxCell id="jVbXVxqvNYoYon0j-dt1-9" value="" style="endArrow=none;html=1;rounded=0;strokeColor=light-dark(#000000,#000000);entryX=0.843;entryY=0.092;entryDx=0;entryDy=0;entryPerimeter=0;strokeWidth=2;" parent="jVbXVxqvNYoYon0j-dt1-6" target="jVbXVxqvNYoYon0j-dt1-7" edge="1">
          <mxGeometry width="50" height="50" relative="1" as="geometry">
            <mxPoint x="66" y="28" as="sourcePoint" />
            <mxPoint x="87" y="-8" as="targetPoint" />
          </mxGeometry>
        </mxCell>
        <mxCell id="jVbXVxqvNYoYon0j-dt1-11" value="" style="group" parent="1" vertex="1" connectable="0">
          <mxGeometry x="1276.5" y="-1721" width="90.5" height="29" as="geometry" />
        </mxCell>
        <mxCell id="jVbXVxqvNYoYon0j-dt1-12" value="" style="strokeWidth=2;html=1;shape=mxgraph.flowchart.terminator;whiteSpace=wrap;strokeColor=light-dark(#000000,#A44C00);gradientColor=light-dark(#000000,#BA5500);fillColor=light-dark(#FFFFFF,#FFFFFF);gradientDirection=radial;" parent="jVbXVxqvNYoYon0j-dt1-11" vertex="1">
          <mxGeometry width="90.5" height="29" as="geometry" />
        </mxCell>
        <mxCell id="jVbXVxqvNYoYon0j-dt1-13" value="Cidade" style="text;html=1;align=center;verticalAlign=middle;whiteSpace=wrap;rounded=0;fillColor=none;fontColor=light-dark(#000000,#000000);fontSize=12;" parent="jVbXVxqvNYoYon0j-dt1-11" vertex="1">
          <mxGeometry x="27" y="9.870000000000005" width="36.5" height="9.25" as="geometry" />
        </mxCell>
        <mxCell id="jVbXVxqvNYoYon0j-dt1-14" value="" style="group" parent="1" vertex="1" connectable="0">
          <mxGeometry x="1381.5" y="-1720" width="90.5" height="29" as="geometry" />
        </mxCell>
        <mxCell id="jVbXVxqvNYoYon0j-dt1-15" value="" style="strokeWidth=2;html=1;shape=mxgraph.flowchart.terminator;whiteSpace=wrap;strokeColor=light-dark(#000000,#A44C00);gradientColor=light-dark(#000000,#FF8000);fillColor=light-dark(#FFFFFF,#FFFFFF);gradientDirection=radial;dashed=1;" parent="jVbXVxqvNYoYon0j-dt1-14" vertex="1">
          <mxGeometry width="90.5" height="29" as="geometry" />
        </mxCell>
        <mxCell id="jVbXVxqvNYoYon0j-dt1-16" value="Cidade" style="text;html=1;align=center;verticalAlign=middle;whiteSpace=wrap;rounded=0;fillColor=none;fontColor=light-dark(#000000,#000000);fontSize=12;" parent="jVbXVxqvNYoYon0j-dt1-14" vertex="1">
          <mxGeometry x="27" y="9.870000000000005" width="36.5" height="9.25" as="geometry" />
        </mxCell>
        <mxCell id="jVbXVxqvNYoYon0j-dt1-26" value="y" style="group" parent="1" vertex="1" connectable="0">
          <mxGeometry x="1278.5" y="-1767" width="90.5" height="29" as="geometry" />
        </mxCell>
        <mxCell id="jVbXVxqvNYoYon0j-dt1-27" value="" style="strokeWidth=2;html=1;shape=mxgraph.flowchart.terminator;whiteSpace=wrap;strokeColor=light-dark(#000000,#C0B652);gradientColor=light-dark(#000000,#CECE08);fillColor=light-dark(#FFFFFF,#FFFFFF);gradientDirection=radial;" parent="jVbXVxqvNYoYon0j-dt1-26" vertex="1">
          <mxGeometry width="90.5" height="29" as="geometry" />
        </mxCell>
        <mxCell id="jVbXVxqvNYoYon0j-dt1-28" value="Cidade" style="text;html=1;align=center;verticalAlign=middle;whiteSpace=wrap;rounded=0;fillColor=none;fontColor=light-dark(#000000,#000000);fontSize=12;" parent="jVbXVxqvNYoYon0j-dt1-26" vertex="1">
          <mxGeometry x="27" y="9.870000000000005" width="36.5" height="9.25" as="geometry" />
        </mxCell>
        <mxCell id="jVbXVxqvNYoYon0j-dt1-29" value="" style="shape=cross;whiteSpace=wrap;html=1;strokeColor=none;" parent="jVbXVxqvNYoYon0j-dt1-26" vertex="1">
          <mxGeometry x="70" y="-5.999999999999996" width="13" height="14" as="geometry" />
        </mxCell>
        <mxCell id="2LAl9BLSWvAE8NERQg5I-2" value="" style="group" parent="1" vertex="1" connectable="0">
          <mxGeometry x="1302.5" y="-1536" width="152" height="141" as="geometry" />
        </mxCell>
        <mxCell id="jVbXVxqvNYoYon0j-dt1-19" value="" style="group" parent="2LAl9BLSWvAE8NERQg5I-2" vertex="1" connectable="0">
          <mxGeometry y="30" width="152" height="111" as="geometry" />
        </mxCell>
        <mxCell id="jVbXVxqvNYoYon0j-dt1-20" value="" style="rhombus;whiteSpace=wrap;html=1;strokeWidth=3;strokeColor=light-dark(#000000,#008000);fillColor=light-dark(#FFFFFF,#FFFFFF);gradientColor=light-dark(#000000,#58FF4E);gradientDirection=radial;" parent="jVbXVxqvNYoYon0j-dt1-19" vertex="1">
          <mxGeometry width="132" height="88" as="geometry" />
        </mxCell>
        <mxCell id="jVbXVxqvNYoYon0j-dt1-21" value="Possui" style="text;html=1;align=center;verticalAlign=middle;whiteSpace=wrap;rounded=0;fillColor=none;fontColor=light-dark(#000000,#000000);fontSize=15;" parent="jVbXVxqvNYoYon0j-dt1-19" vertex="1">
          <mxGeometry x="16.5" y="29" width="99" height="30" as="geometry" />
        </mxCell>
        <mxCell id="jVbXVxqvNYoYon0j-dt1-23" value="" style="rounded=0;whiteSpace=wrap;html=1;fillColor=none;strokeColor=light-dark(#000000,#008000);strokeWidth=2;" parent="jVbXVxqvNYoYon0j-dt1-19" vertex="1">
          <mxGeometry x="-15" y="-31" width="162" height="129" as="geometry" />
        </mxCell>
        <mxCell id="jVbXVxqvNYoYon0j-dt1-25" value="Consulta" style="text;html=1;align=center;verticalAlign=middle;whiteSpace=wrap;rounded=0;fillColor=none;fontColor=light-dark(#000000,#000000);fontSize=15;" parent="2LAl9BLSWvAE8NERQg5I-2" vertex="1">
          <mxGeometry x="16.5" width="99" height="30" as="geometry" />
        </mxCell>
        <mxCell id="2LAl9BLSWvAE8NERQg5I-4" value="" style="group" parent="1" vertex="1" connectable="0">
          <mxGeometry x="-865.5" y="-1591" width="120" height="60" as="geometry" />
        </mxCell>
        <mxCell id="2LAl9BLSWvAE8NERQg5I-5" value="" style="rounded=0;whiteSpace=wrap;html=1;strokeColor=light-dark(#000000,#000099);perimeterSpacing=0;strokeWidth=3;fillColor=light-dark(#FFFFFF,#FFFFFF);gradientColor=light-dark(#000000,#6666FF);gradientDirection=radial;" parent="2LAl9BLSWvAE8NERQg5I-4" vertex="1">
          <mxGeometry width="120" height="60" as="geometry" />
        </mxCell>
        <mxCell id="2LAl9BLSWvAE8NERQg5I-6" value="Aluno" style="text;html=1;align=center;verticalAlign=middle;whiteSpace=wrap;rounded=0;fillColor=none;fontColor=light-dark(#000000,#000000);fontSize=15;" parent="2LAl9BLSWvAE8NERQg5I-4" vertex="1">
          <mxGeometry x="10.5" y="15" width="99" height="30" as="geometry" />
        </mxCell>
        <mxCell id="2LAl9BLSWvAE8NERQg5I-7" value="" style="group" parent="1" vertex="1" connectable="0">
          <mxGeometry x="-472" y="-2115" width="120" height="60" as="geometry" />
        </mxCell>
        <mxCell id="2LAl9BLSWvAE8NERQg5I-8" value="" style="rounded=0;whiteSpace=wrap;html=1;strokeColor=light-dark(#000000,#000099);perimeterSpacing=0;strokeWidth=3;fillColor=light-dark(#FFFFFF,#FFFFFF);gradientColor=light-dark(#000000,#6666FF);gradientDirection=radial;" parent="2LAl9BLSWvAE8NERQg5I-7" vertex="1">
          <mxGeometry width="120" height="60" as="geometry" />
        </mxCell>
        <mxCell id="2LAl9BLSWvAE8NERQg5I-9" value="Usuário" style="text;html=1;align=center;verticalAlign=middle;whiteSpace=wrap;rounded=0;fillColor=none;fontColor=light-dark(#000000,#000000);fontSize=15;" parent="2LAl9BLSWvAE8NERQg5I-7" vertex="1">
          <mxGeometry x="10.5" y="15" width="99" height="30" as="geometry" />
        </mxCell>
        <mxCell id="2LAl9BLSWvAE8NERQg5I-10" value="" style="group" parent="1" vertex="1" connectable="0">
          <mxGeometry x="156" y="-1624" width="120" height="60" as="geometry" />
        </mxCell>
        <mxCell id="2LAl9BLSWvAE8NERQg5I-11" value="" style="rounded=0;whiteSpace=wrap;html=1;strokeColor=light-dark(#000000,#000099);perimeterSpacing=0;strokeWidth=3;fillColor=light-dark(#FFFFFF,#FFFFFF);gradientColor=light-dark(#000000,#6666FF);gradientDirection=radial;" parent="2LAl9BLSWvAE8NERQg5I-10" vertex="1">
          <mxGeometry width="120" height="60" as="geometry" />
        </mxCell>
        <mxCell id="2LAl9BLSWvAE8NERQg5I-12" value="Funcionário Administrativo" style="text;html=1;align=center;verticalAlign=middle;whiteSpace=wrap;rounded=0;fillColor=none;fontColor=light-dark(#000000,#000000);fontSize=15;" parent="2LAl9BLSWvAE8NERQg5I-10" vertex="1">
          <mxGeometry x="10.5" y="15" width="99" height="30" as="geometry" />
        </mxCell>
        <mxCell id="2LAl9BLSWvAE8NERQg5I-19" value="" style="group" parent="1" vertex="1" connectable="0">
          <mxGeometry x="-213.25" y="-1691" width="120" height="60" as="geometry" />
        </mxCell>
        <mxCell id="2LAl9BLSWvAE8NERQg5I-20" value="" style="rounded=0;whiteSpace=wrap;html=1;strokeColor=light-dark(#000000,#000099);perimeterSpacing=0;strokeWidth=3;fillColor=light-dark(#FFFFFF,#FFFFFF);gradientColor=light-dark(#000000,#6666FF);gradientDirection=radial;" parent="2LAl9BLSWvAE8NERQg5I-19" vertex="1">
          <mxGeometry width="120" height="60" as="geometry" />
        </mxCell>
        <mxCell id="2LAl9BLSWvAE8NERQg5I-21" value="Professor" style="text;html=1;align=center;verticalAlign=middle;whiteSpace=wrap;rounded=0;fillColor=none;fontColor=light-dark(#000000,#000000);fontSize=15;" parent="2LAl9BLSWvAE8NERQg5I-19" vertex="1">
          <mxGeometry x="10.5" y="15" width="99" height="30" as="geometry" />
        </mxCell>
        <mxCell id="2LAl9BLSWvAE8NERQg5I-22" value="" style="group" parent="1" vertex="1" connectable="0">
          <mxGeometry x="-1138.25" y="-942" width="120" height="60" as="geometry" />
        </mxCell>
        <mxCell id="2LAl9BLSWvAE8NERQg5I-23" value="" style="rounded=0;whiteSpace=wrap;html=1;strokeColor=light-dark(#000000,#000099);perimeterSpacing=0;strokeWidth=3;fillColor=light-dark(#FFFFFF,#FFFFFF);gradientColor=light-dark(#000000,#6666FF);gradientDirection=radial;" parent="2LAl9BLSWvAE8NERQg5I-22" vertex="1">
          <mxGeometry width="120" height="60" as="geometry" />
        </mxCell>
        <mxCell id="2LAl9BLSWvAE8NERQg5I-24" value="Unidade" style="text;html=1;align=center;verticalAlign=middle;whiteSpace=wrap;rounded=0;fillColor=none;fontColor=light-dark(#000000,#000000);fontSize=15;" parent="2LAl9BLSWvAE8NERQg5I-22" vertex="1">
          <mxGeometry x="10.5" y="15" width="99" height="30" as="geometry" />
        </mxCell>
        <mxCell id="2LAl9BLSWvAE8NERQg5I-25" value="" style="group" parent="1" vertex="1" connectable="0">
          <mxGeometry x="-37" y="-1112" width="120" height="60" as="geometry" />
        </mxCell>
        <mxCell id="2LAl9BLSWvAE8NERQg5I-26" value="" style="rounded=0;whiteSpace=wrap;html=1;strokeColor=light-dark(#000000,#000099);perimeterSpacing=0;strokeWidth=3;fillColor=light-dark(#FFFFFF,#FFFFFF);gradientColor=light-dark(#000000,#6666FF);gradientDirection=radial;" parent="2LAl9BLSWvAE8NERQg5I-25" vertex="1">
          <mxGeometry width="120" height="60" as="geometry" />
        </mxCell>
        <mxCell id="2LAl9BLSWvAE8NERQg5I-27" value="Disciplina" style="text;html=1;align=center;verticalAlign=middle;whiteSpace=wrap;rounded=0;fillColor=none;fontColor=light-dark(#000000,#000000);fontSize=15;" parent="2LAl9BLSWvAE8NERQg5I-25" vertex="1">
          <mxGeometry x="10.5" y="15" width="99" height="30" as="geometry" />
        </mxCell>
        <mxCell id="2LAl9BLSWvAE8NERQg5I-29" value="" style="group" parent="1" vertex="1" connectable="0">
          <mxGeometry x="-37" y="-810" width="120" height="60" as="geometry" />
        </mxCell>
        <mxCell id="2LAl9BLSWvAE8NERQg5I-30" value="" style="rounded=0;whiteSpace=wrap;html=1;strokeColor=light-dark(#000000,#000099);perimeterSpacing=0;strokeWidth=3;fillColor=light-dark(#FFFFFF,#FFFFFF);gradientColor=light-dark(#000000,#6666FF);gradientDirection=radial;" parent="2LAl9BLSWvAE8NERQg5I-29" vertex="1">
          <mxGeometry width="120" height="60" as="geometry" />
        </mxCell>
        <mxCell id="2LAl9BLSWvAE8NERQg5I-31" value="Curso" style="text;html=1;align=center;verticalAlign=middle;whiteSpace=wrap;rounded=0;fillColor=none;fontColor=light-dark(#000000,#000000);fontSize=15;" parent="2LAl9BLSWvAE8NERQg5I-29" vertex="1">
          <mxGeometry x="10.5" y="15" width="99" height="30" as="geometry" />
        </mxCell>
        <mxCell id="2LAl9BLSWvAE8NERQg5I-34" value="" style="group" parent="1" vertex="1" connectable="0">
          <mxGeometry x="-43" y="-975" width="132" height="88" as="geometry" />
        </mxCell>
        <mxCell id="2LAl9BLSWvAE8NERQg5I-35" value="" style="rhombus;whiteSpace=wrap;html=1;strokeWidth=3;strokeColor=light-dark(#000000,#008000);fillColor=light-dark(#FFFFFF,#FFFFFF);gradientColor=light-dark(#000000,#58FF4E);gradientDirection=radial;" parent="2LAl9BLSWvAE8NERQg5I-34" vertex="1">
          <mxGeometry width="132" height="88" as="geometry" />
        </mxCell>
        <mxCell id="2LAl9BLSWvAE8NERQg5I-36" value="Compõe" style="text;html=1;align=center;verticalAlign=middle;whiteSpace=wrap;rounded=0;fillColor=none;fontColor=light-dark(#000000,#000000);fontSize=15;" parent="2LAl9BLSWvAE8NERQg5I-34" vertex="1">
          <mxGeometry x="16.5" y="29" width="99" height="30" as="geometry" />
        </mxCell>
        <mxCell id="2LAl9BLSWvAE8NERQg5I-37" value="" style="endArrow=none;html=1;rounded=0;fontSize=12;startSize=8;endSize=8;curved=1;exitX=0.5;exitY=0;exitDx=0;exitDy=0;entryX=0.5;entryY=1;entryDx=0;entryDy=0;strokeColor=light-dark(#000000,#000000);strokeWidth=2;" parent="1" source="sH1HxAaR-ODx4O14QXts-133" target="2LAl9BLSWvAE8NERQg5I-26" edge="1">
          <mxGeometry width="50" height="50" relative="1" as="geometry">
            <mxPoint x="-368" y="-797" as="sourcePoint" />
            <mxPoint x="-119" y="-802" as="targetPoint" />
          </mxGeometry>
        </mxCell>
        <mxCell id="2LAl9BLSWvAE8NERQg5I-38" value="" style="endArrow=none;html=1;rounded=0;fontSize=12;startSize=8;endSize=8;curved=1;exitX=0.5;exitY=0;exitDx=0;exitDy=0;entryX=0.5;entryY=1;entryDx=0;entryDy=0;strokeColor=light-dark(#000000,#000000);strokeWidth=2;" parent="1" source="sH1HxAaR-ODx4O14QXts-129" target="2LAl9BLSWvAE8NERQg5I-35" edge="1">
          <mxGeometry width="50" height="50" relative="1" as="geometry">
            <mxPoint x="65" y="-810" as="sourcePoint" />
            <mxPoint x="65" y="-887" as="targetPoint" />
          </mxGeometry>
        </mxCell>
        <mxCell id="2LAl9BLSWvAE8NERQg5I-39" value="" style="group" parent="1" vertex="1" connectable="0">
          <mxGeometry x="-478" y="-1979" width="120" height="60" as="geometry" />
        </mxCell>
        <mxCell id="2LAl9BLSWvAE8NERQg5I-32" value="" style="shape=hexagon;perimeter=hexagonPerimeter2;whiteSpace=wrap;html=1;fixedSize=1;strokeColor=light-dark(#000000,#604020);strokeWidth=3;gradientColor=light-dark(#000000,#CF9F6C);gradientDirection=radial;fillColor=light-dark(#FFFFFF,#FFFFFF);" parent="2LAl9BLSWvAE8NERQg5I-39" vertex="1">
          <mxGeometry width="120" height="60" as="geometry" />
        </mxCell>
        <mxCell id="2LAl9BLSWvAE8NERQg5I-33" value="Tipo" style="text;html=1;align=center;verticalAlign=middle;whiteSpace=wrap;rounded=0;fillColor=none;fontColor=light-dark(#000000,#000000);fontSize=15;" parent="2LAl9BLSWvAE8NERQg5I-39" vertex="1">
          <mxGeometry x="10.5" y="15" width="99" height="30" as="geometry" />
        </mxCell>
        <mxCell id="2LAl9BLSWvAE8NERQg5I-42" value="" style="endArrow=none;html=1;rounded=0;fontSize=12;startSize=8;endSize=8;curved=1;entryX=0.5;entryY=1;entryDx=0;entryDy=0;strokeColor=light-dark(#000000,#000000);strokeWidth=2;exitX=0.5;exitY=0;exitDx=0;exitDy=0;" parent="1" source="2LAl9BLSWvAE8NERQg5I-20" target="2LAl9BLSWvAE8NERQg5I-32" edge="1">
          <mxGeometry width="50" height="50" relative="1" as="geometry">
            <mxPoint x="-218" y="-1810" as="sourcePoint" />
            <mxPoint x="-218" y="-1922" as="targetPoint" />
          </mxGeometry>
        </mxCell>
        <mxCell id="2LAl9BLSWvAE8NERQg5I-43" value="" style="endArrow=none;html=1;rounded=0;fontSize=12;startSize=8;endSize=8;curved=1;entryX=1;entryY=0.75;entryDx=0;entryDy=0;strokeColor=light-dark(#000000,#000000);strokeWidth=2;exitX=0;exitY=0.5;exitDx=0;exitDy=0;" parent="1" source="2LAl9BLSWvAE8NERQg5I-11" target="2LAl9BLSWvAE8NERQg5I-32" edge="1">
          <mxGeometry width="50" height="50" relative="1" as="geometry">
            <mxPoint x="-388" y="-1723" as="sourcePoint" />
            <mxPoint x="-388" y="-1814" as="targetPoint" />
          </mxGeometry>
        </mxCell>
        <mxCell id="2LAl9BLSWvAE8NERQg5I-44" value="" style="endArrow=none;html=1;rounded=0;fontSize=12;startSize=8;endSize=8;curved=1;entryX=0;entryY=0.75;entryDx=0;entryDy=0;strokeColor=light-dark(#000000,#000000);strokeWidth=2;exitX=0.5;exitY=0;exitDx=0;exitDy=0;" parent="1" source="2LAl9BLSWvAE8NERQg5I-5" target="2LAl9BLSWvAE8NERQg5I-32" edge="1">
          <mxGeometry width="50" height="50" relative="1" as="geometry">
            <mxPoint x="-97" y="-1711" as="sourcePoint" />
            <mxPoint x="-303" y="-1802" as="targetPoint" />
          </mxGeometry>
        </mxCell>
        <mxCell id="2LAl9BLSWvAE8NERQg5I-49" value="" style="group" parent="1" vertex="1" connectable="0">
          <mxGeometry x="-215" y="-1383" width="132" height="88" as="geometry" />
        </mxCell>
        <mxCell id="2LAl9BLSWvAE8NERQg5I-50" value="" style="rhombus;whiteSpace=wrap;html=1;strokeWidth=3;strokeColor=light-dark(#000000,#008000);fillColor=light-dark(#FFFFFF,#FFFFFF);gradientColor=light-dark(#000000,#58FF4E);gradientDirection=radial;" parent="2LAl9BLSWvAE8NERQg5I-49" vertex="1">
          <mxGeometry width="132" height="88" as="geometry" />
        </mxCell>
        <mxCell id="2LAl9BLSWvAE8NERQg5I-51" value="Ministra" style="text;html=1;align=center;verticalAlign=middle;whiteSpace=wrap;rounded=0;fillColor=none;fontColor=light-dark(#000000,#000000);fontSize=15;" parent="2LAl9BLSWvAE8NERQg5I-49" vertex="1">
          <mxGeometry x="16.5" y="29" width="99" height="30" as="geometry" />
        </mxCell>
        <mxCell id="2LAl9BLSWvAE8NERQg5I-55" value="" style="endArrow=none;html=1;rounded=0;fontSize=12;startSize=8;endSize=8;curved=1;entryX=0.5;entryY=1;entryDx=0;entryDy=0;strokeColor=light-dark(#000000,#000000);strokeWidth=2;exitX=0.5;exitY=0;exitDx=0;exitDy=0;" parent="1" source="sH1HxAaR-ODx4O14QXts-117" target="2LAl9BLSWvAE8NERQg5I-20" edge="1">
          <mxGeometry width="50" height="50" relative="1" as="geometry">
            <mxPoint x="-142.25000000000045" y="-1440" as="sourcePoint" />
            <mxPoint x="-88.25" y="-1558" as="targetPoint" />
          </mxGeometry>
        </mxCell>
        <mxCell id="2LAl9BLSWvAE8NERQg5I-56" value="" style="endArrow=none;html=1;rounded=0;fontSize=12;startSize=8;endSize=8;curved=1;entryX=0.5;entryY=1;entryDx=0;entryDy=0;strokeColor=light-dark(#000000,#000000);strokeWidth=2;exitX=0.25;exitY=0;exitDx=0;exitDy=0;" parent="1" source="sH1HxAaR-ODx4O14QXts-119" target="2LAl9BLSWvAE8NERQg5I-50" edge="1">
          <mxGeometry width="50" height="50" relative="1" as="geometry">
            <mxPoint x="77" y="-1099" as="sourcePoint" />
            <mxPoint x="77" y="-1175" as="targetPoint" />
          </mxGeometry>
        </mxCell>
        <mxCell id="2LAl9BLSWvAE8NERQg5I-62" value="" style="endArrow=none;html=1;rounded=0;fontSize=12;startSize=8;endSize=8;curved=1;entryX=1;entryY=0.5;entryDx=0;entryDy=0;strokeColor=light-dark(#000000,#000000);strokeWidth=2;exitX=0;exitY=0.25;exitDx=0;exitDy=0;" parent="1" source="sH1HxAaR-ODx4O14QXts-93" target="ntMzKID20fwuhIGmep4X-5" edge="1">
          <mxGeometry width="50" height="50" relative="1" as="geometry">
            <mxPoint x="-429" y="-1433" as="sourcePoint" />
            <mxPoint x="-394.9999999999998" y="-1632" as="targetPoint" />
          </mxGeometry>
        </mxCell>
        <mxCell id="2LAl9BLSWvAE8NERQg5I-63" value="" style="endArrow=none;html=1;rounded=0;fontSize=12;startSize=8;endSize=8;curved=1;entryX=1;entryY=0.5;entryDx=0;entryDy=0;strokeColor=light-dark(#000000,#000000);strokeWidth=2;exitX=0;exitY=0.75;exitDx=0;exitDy=0;" parent="1" source="sH1HxAaR-ODx4O14QXts-98" target="2LAl9BLSWvAE8NERQg5I-5" edge="1">
          <mxGeometry width="50" height="50" relative="1" as="geometry">
            <mxPoint x="-679.5" y="-1556" as="sourcePoint" />
            <mxPoint x="-742.5" y="-1556" as="targetPoint" />
          </mxGeometry>
        </mxCell>
        <mxCell id="2LAl9BLSWvAE8NERQg5I-67" value="" style="endArrow=none;html=1;rounded=0;fontSize=12;startSize=8;endSize=8;curved=1;entryX=0.5;entryY=0;entryDx=0;entryDy=0;strokeColor=light-dark(#000000,#000000);strokeWidth=2;exitX=1;exitY=0.75;exitDx=0;exitDy=0;" parent="1" source="sH1HxAaR-ODx4O14QXts-101" target="2LAl9BLSWvAE8NERQg5I-11" edge="1">
          <mxGeometry width="50" height="50" relative="1" as="geometry">
            <mxPoint x="-324" y="-1686" as="sourcePoint" />
            <mxPoint x="-387" y="-1686" as="targetPoint" />
          </mxGeometry>
        </mxCell>
        <mxCell id="2LAl9BLSWvAE8NERQg5I-68" value="" style="endArrow=none;html=1;rounded=0;fontSize=12;startSize=8;endSize=8;curved=1;entryX=1;entryY=0.5;entryDx=0;entryDy=0;strokeColor=light-dark(#000000,#000000);strokeWidth=2;exitX=0.25;exitY=1;exitDx=0;exitDy=0;" parent="1" source="sH1HxAaR-ODx4O14QXts-105" target="2LAl9BLSWvAE8NERQg5I-8" edge="1">
          <mxGeometry width="50" height="50" relative="1" as="geometry">
            <mxPoint x="-157" y="-1697" as="sourcePoint" />
            <mxPoint x="56" y="-1563" as="targetPoint" />
          </mxGeometry>
        </mxCell>
        <mxCell id="2LAl9BLSWvAE8NERQg5I-69" value="" style="endArrow=none;html=1;rounded=0;fontSize=12;startSize=8;endSize=8;curved=1;entryX=1;entryY=0;entryDx=0;entryDy=0;strokeColor=light-dark(#000000,#000000);strokeWidth=2;exitX=0;exitY=0.75;exitDx=0;exitDy=0;" parent="1" source="sH1HxAaR-ODx4O14QXts-107" target="2LAl9BLSWvAE8NERQg5I-5" edge="1">
          <mxGeometry width="50" height="50" relative="1" as="geometry">
            <mxPoint x="-463.5" y="-1687" as="sourcePoint" />
            <mxPoint x="-602.5" y="-1627" as="targetPoint" />
          </mxGeometry>
        </mxCell>
        <mxCell id="2LAl9BLSWvAE8NERQg5I-74" value="" style="group" parent="1" vertex="1" connectable="0">
          <mxGeometry x="-43.75" y="-1383" width="132" height="88" as="geometry" />
        </mxCell>
        <mxCell id="2LAl9BLSWvAE8NERQg5I-75" value="" style="rhombus;whiteSpace=wrap;html=1;strokeWidth=3;strokeColor=light-dark(#000000,#008000);fillColor=light-dark(#FFFFFF,#FFFFFF);gradientColor=light-dark(#000000,#58FF4E);gradientDirection=radial;" parent="2LAl9BLSWvAE8NERQg5I-74" vertex="1">
          <mxGeometry width="132" height="88" as="geometry" />
        </mxCell>
        <mxCell id="2LAl9BLSWvAE8NERQg5I-76" value="É responsável" style="text;html=1;align=center;verticalAlign=middle;whiteSpace=wrap;rounded=0;fillColor=none;fontColor=light-dark(#000000,#000000);fontSize=15;" parent="2LAl9BLSWvAE8NERQg5I-74" vertex="1">
          <mxGeometry x="16.5" y="29" width="99" height="30" as="geometry" />
        </mxCell>
        <mxCell id="2LAl9BLSWvAE8NERQg5I-77" value="" style="endArrow=none;html=1;rounded=0;fontSize=12;startSize=8;endSize=8;curved=1;entryX=0.5;entryY=1;entryDx=0;entryDy=0;strokeColor=light-dark(#000000,#000000);strokeWidth=2;exitX=0.5;exitY=0;exitDx=0;exitDy=0;" parent="1" source="sH1HxAaR-ODx4O14QXts-66" target="2LAl9BLSWvAE8NERQg5I-75" edge="1">
          <mxGeometry width="50" height="50" relative="1" as="geometry">
            <mxPoint x="259" y="-1126" as="sourcePoint" />
            <mxPoint x="173" y="-1208" as="targetPoint" />
          </mxGeometry>
        </mxCell>
        <mxCell id="2LAl9BLSWvAE8NERQg5I-78" value="" style="endArrow=none;html=1;rounded=0;fontSize=12;startSize=8;endSize=8;curved=1;strokeColor=light-dark(#000000,#000000);strokeWidth=2;exitX=0.5;exitY=0;exitDx=0;exitDy=0;entryX=0.75;entryY=1;entryDx=0;entryDy=0;" parent="1" source="sH1HxAaR-ODx4O14QXts-64" target="2LAl9BLSWvAE8NERQg5I-20" edge="1">
          <mxGeometry width="50" height="50" relative="1" as="geometry">
            <mxPoint x="53.75" y="-1225" as="sourcePoint" />
            <mxPoint x="-143.25" y="-1580" as="targetPoint" />
          </mxGeometry>
        </mxCell>
        <mxCell id="2LAl9BLSWvAE8NERQg5I-79" value="" style="endArrow=none;html=1;rounded=0;fontSize=12;startSize=8;endSize=8;curved=1;strokeColor=light-dark(#000000,#000000);strokeWidth=2;exitX=0;exitY=0.25;exitDx=0;exitDy=0;entryX=1;entryY=1;entryDx=0;entryDy=0;" parent="1" source="sH1HxAaR-ODx4O14QXts-125" target="2LAl9BLSWvAE8NERQg5I-20" edge="1">
          <mxGeometry width="50" height="50" relative="1" as="geometry">
            <mxPoint x="9.75" y="-1681" as="sourcePoint" />
            <mxPoint x="-203.25" y="-1581" as="targetPoint" />
          </mxGeometry>
        </mxCell>
        <mxCell id="2LAl9BLSWvAE8NERQg5I-80" value="" style="group" parent="1" vertex="1" connectable="0">
          <mxGeometry x="270" y="-1379" width="132" height="88" as="geometry" />
        </mxCell>
        <mxCell id="2LAl9BLSWvAE8NERQg5I-81" value="" style="rhombus;whiteSpace=wrap;html=1;strokeWidth=3;strokeColor=light-dark(#000000,#008000);fillColor=light-dark(#FFFFFF,#FFFFFF);gradientColor=light-dark(#000000,#58FF4E);gradientDirection=radial;" parent="2LAl9BLSWvAE8NERQg5I-80" vertex="1">
          <mxGeometry width="132" height="88" as="geometry" />
        </mxCell>
        <mxCell id="2LAl9BLSWvAE8NERQg5I-82" value="Pertence" style="text;html=1;align=center;verticalAlign=middle;whiteSpace=wrap;rounded=0;fillColor=none;fontColor=light-dark(#000000,#000000);fontSize=15;" parent="2LAl9BLSWvAE8NERQg5I-80" vertex="1">
          <mxGeometry x="16.5" y="29" width="99" height="30" as="geometry" />
        </mxCell>
        <mxCell id="2LAl9BLSWvAE8NERQg5I-83" value="" style="endArrow=none;html=1;rounded=0;fontSize=12;startSize=8;endSize=8;curved=1;entryX=0.5;entryY=1;entryDx=0;entryDy=0;strokeColor=light-dark(#000000,#000000);strokeWidth=2;exitX=0.5;exitY=0;exitDx=0;exitDy=0;" parent="1" source="sH1HxAaR-ODx4O14QXts-127" target="2LAl9BLSWvAE8NERQg5I-81" edge="1">
          <mxGeometry width="50" height="50" relative="1" as="geometry">
            <mxPoint x="342" y="-1082" as="sourcePoint" />
            <mxPoint x="326" y="-1153" as="targetPoint" />
          </mxGeometry>
        </mxCell>
        <mxCell id="2LAl9BLSWvAE8NERQg5I-85" value="" style="group" parent="1" vertex="1" connectable="0">
          <mxGeometry x="278" y="-1150" width="120" height="60" as="geometry" />
        </mxCell>
        <mxCell id="2LAl9BLSWvAE8NERQg5I-86" value="" style="rounded=0;whiteSpace=wrap;html=1;strokeColor=light-dark(#000000,#000099);perimeterSpacing=0;strokeWidth=3;fillColor=light-dark(#FFFFFF,#FFFFFF);gradientColor=light-dark(#000000,#6666FF);gradientDirection=radial;" parent="2LAl9BLSWvAE8NERQg5I-85" vertex="1">
          <mxGeometry width="120" height="60" as="geometry" />
        </mxCell>
        <mxCell id="2LAl9BLSWvAE8NERQg5I-87" value="Departamento" style="text;html=1;align=center;verticalAlign=middle;whiteSpace=wrap;rounded=0;fillColor=none;fontColor=light-dark(#000000,#000000);fontSize=15;" parent="2LAl9BLSWvAE8NERQg5I-85" vertex="1">
          <mxGeometry x="10.5" y="15" width="99" height="30" as="geometry" />
        </mxCell>
        <mxCell id="2LAl9BLSWvAE8NERQg5I-89" value="" style="group" parent="1" vertex="1" connectable="0">
          <mxGeometry x="-477" y="-913" width="132" height="88" as="geometry" />
        </mxCell>
        <mxCell id="2LAl9BLSWvAE8NERQg5I-90" value="" style="rhombus;whiteSpace=wrap;html=1;strokeWidth=3;strokeColor=light-dark(#000000,#008000);fillColor=light-dark(#FFFFFF,#FFFFFF);gradientColor=light-dark(#000000,#58FF4E);gradientDirection=radial;" parent="2LAl9BLSWvAE8NERQg5I-89" vertex="1">
          <mxGeometry width="132" height="88" as="geometry" />
        </mxCell>
        <mxCell id="2LAl9BLSWvAE8NERQg5I-91" value="Associa-se" style="text;html=1;align=center;verticalAlign=middle;whiteSpace=wrap;rounded=0;fillColor=none;fontColor=light-dark(#000000,#000000);fontSize=15;" parent="2LAl9BLSWvAE8NERQg5I-89" vertex="1">
          <mxGeometry x="16.5" y="29" width="99" height="30" as="geometry" />
        </mxCell>
        <mxCell id="2LAl9BLSWvAE8NERQg5I-92" value="" style="group;rotation=90;" parent="1" vertex="1" connectable="0">
          <mxGeometry x="-1175" y="-1785" width="132" height="88" as="geometry" />
        </mxCell>
        <mxCell id="2LAl9BLSWvAE8NERQg5I-93" value="" style="rhombus;whiteSpace=wrap;html=1;strokeWidth=3;strokeColor=light-dark(#000000,#008000);fillColor=light-dark(#FFFFFF,#FFFFFF);gradientColor=light-dark(#000000,#58FF4E);gradientDirection=radial;" parent="2LAl9BLSWvAE8NERQg5I-92" vertex="1">
          <mxGeometry width="132" height="88" as="geometry" />
        </mxCell>
        <mxCell id="2LAl9BLSWvAE8NERQg5I-94" value="Associa-se" style="text;html=1;align=center;verticalAlign=middle;whiteSpace=wrap;rounded=0;fillColor=none;fontColor=light-dark(#000000,#000000);fontSize=15;" parent="2LAl9BLSWvAE8NERQg5I-92" vertex="1">
          <mxGeometry x="16.5" y="29" width="99" height="30" as="geometry" />
        </mxCell>
        <mxCell id="2LAl9BLSWvAE8NERQg5I-95" value="" style="group" parent="1" vertex="1" connectable="0">
          <mxGeometry x="-625" y="-782" width="132" height="88" as="geometry" />
        </mxCell>
        <mxCell id="2LAl9BLSWvAE8NERQg5I-96" value="" style="rhombus;whiteSpace=wrap;html=1;strokeWidth=3;strokeColor=light-dark(#000000,#008000);fillColor=light-dark(#FFFFFF,#FFFFFF);gradientColor=light-dark(#000000,#58FF4E);gradientDirection=radial;" parent="2LAl9BLSWvAE8NERQg5I-95" vertex="1">
          <mxGeometry width="132" height="88" as="geometry" />
        </mxCell>
        <mxCell id="2LAl9BLSWvAE8NERQg5I-97" value="Associa-se" style="text;html=1;align=center;verticalAlign=middle;whiteSpace=wrap;rounded=0;fillColor=none;fontColor=light-dark(#000000,#000000);fontSize=15;" parent="2LAl9BLSWvAE8NERQg5I-95" vertex="1">
          <mxGeometry x="16.5" y="29" width="99" height="30" as="geometry" />
        </mxCell>
        <mxCell id="2LAl9BLSWvAE8NERQg5I-98" value="" style="group" parent="1" vertex="1" connectable="0">
          <mxGeometry x="-1121" y="-1478" width="132" height="88" as="geometry" />
        </mxCell>
        <mxCell id="2LAl9BLSWvAE8NERQg5I-99" value="" style="rhombus;whiteSpace=wrap;html=1;strokeWidth=3;strokeColor=light-dark(#000000,#008000);fillColor=light-dark(#FFFFFF,#FFFFFF);gradientColor=light-dark(#000000,#58FF4E);gradientDirection=radial;" parent="2LAl9BLSWvAE8NERQg5I-98" vertex="1">
          <mxGeometry width="132" height="88" as="geometry" />
        </mxCell>
        <mxCell id="2LAl9BLSWvAE8NERQg5I-100" value="Associa-se" style="text;html=1;align=center;verticalAlign=middle;whiteSpace=wrap;rounded=0;fillColor=none;fontColor=light-dark(#000000,#000000);fontSize=15;" parent="2LAl9BLSWvAE8NERQg5I-98" vertex="1">
          <mxGeometry x="16.5" y="29" width="99" height="30" as="geometry" />
        </mxCell>
        <mxCell id="2LAl9BLSWvAE8NERQg5I-104" value="" style="endArrow=none;html=1;rounded=0;fontSize=12;startSize=8;endSize=8;curved=1;entryX=0;entryY=0.5;entryDx=0;entryDy=0;strokeColor=light-dark(#000000,#000000);strokeWidth=2;exitX=1;exitY=0.5;exitDx=0;exitDy=0;" parent="1" source="sH1HxAaR-ODx4O14QXts-73" target="2LAl9BLSWvAE8NERQg5I-20" edge="1">
          <mxGeometry width="50" height="50" relative="1" as="geometry">
            <mxPoint x="-726.25" y="-1317" as="sourcePoint" />
            <mxPoint x="-726.25" y="-1421" as="targetPoint" />
          </mxGeometry>
        </mxCell>
        <mxCell id="2LAl9BLSWvAE8NERQg5I-106" value="" style="endArrow=none;html=1;rounded=0;fontSize=12;startSize=8;endSize=8;curved=1;exitX=1;exitY=0;exitDx=0;exitDy=0;entryX=0;entryY=0.5;entryDx=0;entryDy=0;strokeColor=light-dark(#000000,#000000);strokeWidth=2;" parent="1" source="sH1HxAaR-ODx4O14QXts-68" target="2LAl9BLSWvAE8NERQg5I-26" edge="1">
          <mxGeometry width="50" height="50" relative="1" as="geometry">
            <mxPoint x="-377" y="-890" as="sourcePoint" />
            <mxPoint x="-228" y="-1048" as="targetPoint" />
          </mxGeometry>
        </mxCell>
        <mxCell id="2LAl9BLSWvAE8NERQg5I-107" value="" style="endArrow=none;html=1;rounded=0;fontSize=12;startSize=8;endSize=8;curved=1;exitX=1;exitY=0.5;exitDx=0;exitDy=0;strokeColor=light-dark(#000000,#000000);strokeWidth=2;entryX=0;entryY=0.5;entryDx=0;entryDy=0;" parent="1" source="sH1HxAaR-ODx4O14QXts-71" target="2LAl9BLSWvAE8NERQg5I-90" edge="1">
          <mxGeometry width="50" height="50" relative="1" as="geometry">
            <mxPoint x="-389" y="-843" as="sourcePoint" />
            <mxPoint x="-531" y="-966" as="targetPoint" />
          </mxGeometry>
        </mxCell>
        <mxCell id="2LAl9BLSWvAE8NERQg5I-108" value="" style="endArrow=none;html=1;rounded=0;fontSize=12;startSize=8;endSize=8;curved=1;entryX=0;entryY=0.5;entryDx=0;entryDy=0;strokeColor=light-dark(#000000,#000000);strokeWidth=2;exitX=0.5;exitY=0;exitDx=0;exitDy=0;" parent="1" source="sH1HxAaR-ODx4O14QXts-75" target="2LAl9BLSWvAE8NERQg5I-93" edge="1">
          <mxGeometry width="50" height="50" relative="1" as="geometry">
            <mxPoint x="-1045" y="-1207" as="sourcePoint" />
            <mxPoint x="-723" y="-1379" as="targetPoint" />
          </mxGeometry>
        </mxCell>
        <mxCell id="2LAl9BLSWvAE8NERQg5I-109" value="" style="endArrow=none;html=1;rounded=0;fontSize=12;startSize=8;endSize=8;curved=1;entryX=0;entryY=1;entryDx=0;entryDy=0;strokeColor=light-dark(#000000,#000000);strokeWidth=2;exitX=1;exitY=0.5;exitDx=0;exitDy=0;" parent="1" source="sH1HxAaR-ODx4O14QXts-83" target="2LAl9BLSWvAE8NERQg5I-5" edge="1">
          <mxGeometry width="50" height="50" relative="1" as="geometry">
            <mxPoint x="-939.5" y="-1459" as="sourcePoint" />
            <mxPoint x="-1057.5" y="-1506" as="targetPoint" />
          </mxGeometry>
        </mxCell>
        <mxCell id="2LAl9BLSWvAE8NERQg5I-110" value="" style="endArrow=none;html=1;rounded=0;fontSize=12;startSize=8;endSize=8;curved=1;entryX=0.5;entryY=1;entryDx=0;entryDy=0;strokeColor=light-dark(#000000,#000000);strokeWidth=2;exitX=0.75;exitY=0;exitDx=0;exitDy=0;" parent="1" source="sH1HxAaR-ODx4O14QXts-77" target="2LAl9BLSWvAE8NERQg5I-99" edge="1">
          <mxGeometry width="50" height="50" relative="1" as="geometry">
            <mxPoint x="-864" y="-1165" as="sourcePoint" />
            <mxPoint x="-788" y="-1269" as="targetPoint" />
          </mxGeometry>
        </mxCell>
        <mxCell id="2LAl9BLSWvAE8NERQg5I-111" value="" style="endArrow=none;html=1;rounded=0;fontSize=12;startSize=8;endSize=8;curved=1;exitX=1;exitY=1;exitDx=0;exitDy=0;strokeColor=light-dark(#000000,#000000);strokeWidth=2;entryX=0;entryY=0.5;entryDx=0;entryDy=0;" parent="1" source="sH1HxAaR-ODx4O14QXts-79" target="2LAl9BLSWvAE8NERQg5I-96" edge="1">
          <mxGeometry width="50" height="50" relative="1" as="geometry">
            <mxPoint x="-754.5" y="-1034" as="sourcePoint" />
            <mxPoint x="-533.5" y="-895" as="targetPoint" />
          </mxGeometry>
        </mxCell>
        <mxCell id="2LAl9BLSWvAE8NERQg5I-112" value="" style="endArrow=none;html=1;rounded=0;fontSize=12;startSize=8;endSize=8;curved=1;exitX=0;exitY=0.5;exitDx=0;exitDy=0;strokeColor=light-dark(#000000,#000000);strokeWidth=2;entryX=1;entryY=0.5;entryDx=0;entryDy=0;" parent="1" source="sH1HxAaR-ODx4O14QXts-81" target="2LAl9BLSWvAE8NERQg5I-96" edge="1">
          <mxGeometry width="50" height="50" relative="1" as="geometry">
            <mxPoint x="-751" y="-1016" as="sourcePoint" />
            <mxPoint x="-478" y="-738" as="targetPoint" />
          </mxGeometry>
        </mxCell>
        <mxCell id="2LAl9BLSWvAE8NERQg5I-114" value="" style="group" parent="1" vertex="1" connectable="0">
          <mxGeometry x="-763" y="-1167" width="152" height="141" as="geometry" />
        </mxCell>
        <mxCell id="2LAl9BLSWvAE8NERQg5I-115" value="" style="group" parent="2LAl9BLSWvAE8NERQg5I-114" vertex="1" connectable="0">
          <mxGeometry y="30" width="152" height="111" as="geometry" />
        </mxCell>
        <mxCell id="2LAl9BLSWvAE8NERQg5I-118" value="" style="rounded=0;whiteSpace=wrap;html=1;fillColor=none;strokeColor=light-dark(#000000,#008000);strokeWidth=2;" parent="2LAl9BLSWvAE8NERQg5I-115" vertex="1">
          <mxGeometry x="-15" y="-31" width="162" height="129" as="geometry" />
        </mxCell>
        <mxCell id="2LAl9BLSWvAE8NERQg5I-116" value="" style="rhombus;whiteSpace=wrap;html=1;strokeWidth=3;strokeColor=light-dark(#000000,#008000);fillColor=light-dark(#FFFFFF,#FFFFFF);gradientColor=light-dark(#000000,#58FF4E);gradientDirection=radial;" parent="2LAl9BLSWvAE8NERQg5I-115" vertex="1">
          <mxGeometry width="132" height="88" as="geometry" />
        </mxCell>
        <mxCell id="2LAl9BLSWvAE8NERQg5I-117" value="Inscreve" style="text;html=1;align=center;verticalAlign=middle;whiteSpace=wrap;rounded=0;fillColor=none;fontColor=light-dark(#000000,#000000);fontSize=15;" parent="2LAl9BLSWvAE8NERQg5I-115" vertex="1">
          <mxGeometry x="16.5" y="29" width="99" height="30" as="geometry" />
        </mxCell>
        <mxCell id="2LAl9BLSWvAE8NERQg5I-119" value="Matrícula" style="text;html=1;align=center;verticalAlign=middle;whiteSpace=wrap;rounded=0;fillColor=none;fontColor=light-dark(#000000,#000000);fontSize=15;" parent="2LAl9BLSWvAE8NERQg5I-114" vertex="1">
          <mxGeometry x="16.5" width="99" height="30" as="geometry" />
        </mxCell>
        <mxCell id="2LAl9BLSWvAE8NERQg5I-120" value="" style="endArrow=none;html=1;rounded=0;fontSize=12;startSize=8;endSize=8;curved=1;entryX=1;entryY=0.5;entryDx=0;entryDy=0;strokeColor=light-dark(#000000,#000000);strokeWidth=2;exitX=0;exitY=0.5;exitDx=0;exitDy=0;" parent="1" source="sH1HxAaR-ODx4O14QXts-91" target="2LAl9BLSWvAE8NERQg5I-116" edge="1">
          <mxGeometry width="50" height="50" relative="1" as="geometry">
            <mxPoint x="-373.5" y="-1070.5" as="sourcePoint" />
            <mxPoint x="-459.5" y="-1152.5" as="targetPoint" />
          </mxGeometry>
        </mxCell>
        <mxCell id="2LAl9BLSWvAE8NERQg5I-122" value="" style="endArrow=none;html=1;rounded=0;fontSize=12;startSize=8;endSize=8;curved=1;entryX=0.5;entryY=1;entryDx=0;entryDy=0;strokeColor=light-dark(#000000,#000000);strokeWidth=2;exitX=0.474;exitY=-0.03;exitDx=0;exitDy=0;exitPerimeter=0;" parent="1" source="sH1HxAaR-ODx4O14QXts-89" target="2LAl9BLSWvAE8NERQg5I-5" edge="1">
          <mxGeometry width="50" height="50" relative="1" as="geometry">
            <mxPoint x="-732.5" y="-1108" as="sourcePoint" />
            <mxPoint x="-698.5" y="-1361" as="targetPoint" />
          </mxGeometry>
        </mxCell>
        <mxCell id="2LAl9BLSWvAE8NERQg5I-126" value="" style="endArrow=none;html=1;rounded=0;fontSize=12;startSize=8;endSize=8;curved=1;entryX=1;entryY=0.5;entryDx=0;entryDy=0;strokeColor=light-dark(#000000,#000000);strokeWidth=2;exitX=0;exitY=1;exitDx=0;exitDy=0;" parent="1" source="sH1HxAaR-ODx4O14QXts-113" target="ntMzKID20fwuhIGmep4X-38" edge="1">
          <mxGeometry width="50" height="50" relative="1" as="geometry">
            <mxPoint x="-173" y="-1549" as="sourcePoint" />
            <mxPoint x="-309.00000000000045" y="-1461" as="targetPoint" />
          </mxGeometry>
        </mxCell>
        <mxCell id="2LAl9BLSWvAE8NERQg5I-127" value="" style="endArrow=none;html=1;rounded=0;fontSize=12;startSize=8;endSize=8;curved=1;entryX=1;entryY=0.5;entryDx=0;entryDy=0;strokeColor=light-dark(#000000,#000000);strokeWidth=2;exitX=0;exitY=0.25;exitDx=0;exitDy=0;" parent="1" source="sH1HxAaR-ODx4O14QXts-111" target="2LAl9BLSWvAE8NERQg5I-5" edge="1">
          <mxGeometry width="50" height="50" relative="1" as="geometry">
            <mxPoint x="-586.5" y="-1499" as="sourcePoint" />
            <mxPoint x="-798.5" y="-1454" as="targetPoint" />
          </mxGeometry>
        </mxCell>
        <mxCell id="2LAl9BLSWvAE8NERQg5I-131" value="" style="endArrow=none;html=1;rounded=0;fontSize=12;startSize=8;endSize=8;curved=1;entryX=1;entryY=1;entryDx=0;entryDy=0;strokeColor=light-dark(#000000,#000000);strokeWidth=2;exitX=0.25;exitY=0;exitDx=0;exitDy=0;" parent="1" source="sH1HxAaR-ODx4O14QXts-109" target="2LAl9BLSWvAE8NERQg5I-5" edge="1">
          <mxGeometry width="50" height="50" relative="1" as="geometry">
            <mxPoint x="-339.5" y="-1203" as="sourcePoint" />
            <mxPoint x="-347.5" y="-1469" as="targetPoint" />
          </mxGeometry>
        </mxCell>
        <mxCell id="2LAl9BLSWvAE8NERQg5I-132" value="" style="endArrow=none;html=1;rounded=0;fontSize=12;startSize=8;endSize=8;curved=1;entryX=1;entryY=0.5;entryDx=0;entryDy=0;strokeColor=light-dark(#000000,#000000);strokeWidth=2;exitX=0;exitY=0;exitDx=0;exitDy=0;" parent="1" source="sH1HxAaR-ODx4O14QXts-115" target="ntMzKID20fwuhIGmep4X-44" edge="1">
          <mxGeometry width="50" height="50" relative="1" as="geometry">
            <mxPoint x="-404" y="-1075" as="sourcePoint" />
            <mxPoint x="-392" y="-1263" as="targetPoint" />
          </mxGeometry>
        </mxCell>
        <mxCell id="2LAl9BLSWvAE8NERQg5I-143" value="y" style="group" parent="1" vertex="1" connectable="0">
          <mxGeometry x="-789" y="-990" width="90.5" height="29" as="geometry" />
        </mxCell>
        <mxCell id="2LAl9BLSWvAE8NERQg5I-144" value="" style="strokeWidth=2;html=1;shape=mxgraph.flowchart.terminator;whiteSpace=wrap;strokeColor=light-dark(#000000,#C0B652);gradientColor=light-dark(#000000,#CECE08);fillColor=light-dark(#FFFFFF,#FFFFFF);gradientDirection=radial;" parent="2LAl9BLSWvAE8NERQg5I-143" vertex="1">
          <mxGeometry width="90.5" height="29" as="geometry" />
        </mxCell>
        <mxCell id="2LAl9BLSWvAE8NERQg5I-145" value="&lt;u&gt;Data Inscrição&lt;/u&gt;" style="text;html=1;align=center;verticalAlign=middle;whiteSpace=wrap;rounded=0;fillColor=none;fontColor=light-dark(#000000,#000000);fontSize=12;" parent="2LAl9BLSWvAE8NERQg5I-143" vertex="1">
          <mxGeometry x="27" y="9.870000000000005" width="36.5" height="9.25" as="geometry" />
        </mxCell>
        <mxCell id="2LAl9BLSWvAE8NERQg5I-146" value="" style="shape=cross;whiteSpace=wrap;html=1;strokeColor=none;" parent="2LAl9BLSWvAE8NERQg5I-143" vertex="1">
          <mxGeometry x="70" y="-5.999999999999996" width="13" height="14" as="geometry" />
        </mxCell>
        <mxCell id="2LAl9BLSWvAE8NERQg5I-147" value="" style="group" parent="1" vertex="1" connectable="0">
          <mxGeometry x="-23" y="-734" width="90.5" height="29" as="geometry" />
        </mxCell>
        <mxCell id="2LAl9BLSWvAE8NERQg5I-148" value="" style="strokeWidth=2;html=1;shape=mxgraph.flowchart.terminator;whiteSpace=wrap;strokeColor=light-dark(#000000,#C0B652);gradientColor=light-dark(#000000,#CECE08);fillColor=light-dark(#FFFFFF,#FFFFFF);gradientDirection=radial;" parent="2LAl9BLSWvAE8NERQg5I-147" vertex="1">
          <mxGeometry width="90.5" height="29" as="geometry" />
        </mxCell>
        <mxCell id="2LAl9BLSWvAE8NERQg5I-149" value="Nome" style="text;html=1;align=center;verticalAlign=middle;whiteSpace=wrap;rounded=0;fillColor=none;fontColor=light-dark(#000000,#000000);fontSize=12;" parent="2LAl9BLSWvAE8NERQg5I-147" vertex="1">
          <mxGeometry x="27" y="9.870000000000005" width="36.5" height="9.25" as="geometry" />
        </mxCell>
        <mxCell id="2LAl9BLSWvAE8NERQg5I-150" value="" style="group" parent="1" vertex="1" connectable="0">
          <mxGeometry x="-23" y="-699.5" width="90.5" height="29" as="geometry" />
        </mxCell>
        <mxCell id="2LAl9BLSWvAE8NERQg5I-151" value="" style="strokeWidth=2;html=1;shape=mxgraph.flowchart.terminator;whiteSpace=wrap;strokeColor=light-dark(#000000,#C0B652);gradientColor=light-dark(#000000,#CECE08);fillColor=light-dark(#FFFFFF,#FFFFFF);gradientDirection=radial;" parent="2LAl9BLSWvAE8NERQg5I-150" vertex="1">
          <mxGeometry width="90.5" height="29" as="geometry" />
        </mxCell>
        <mxCell id="2LAl9BLSWvAE8NERQg5I-152" value="CódigoCurso" style="text;html=1;align=center;verticalAlign=middle;whiteSpace=wrap;rounded=0;fillColor=none;fontColor=light-dark(#000000,#000000);fontSize=12;fontStyle=4" parent="2LAl9BLSWvAE8NERQg5I-150" vertex="1">
          <mxGeometry x="27" y="9.870000000000005" width="36.5" height="9.25" as="geometry" />
        </mxCell>
        <mxCell id="2LAl9BLSWvAE8NERQg5I-153" value="" style="group" parent="1" vertex="1" connectable="0">
          <mxGeometry x="270" y="-982" width="132" height="88" as="geometry" />
        </mxCell>
        <mxCell id="2LAl9BLSWvAE8NERQg5I-154" value="" style="rhombus;whiteSpace=wrap;html=1;strokeWidth=3;strokeColor=light-dark(#000000,#008000);fillColor=light-dark(#FFFFFF,#FFFFFF);gradientColor=light-dark(#000000,#58FF4E);gradientDirection=radial;" parent="2LAl9BLSWvAE8NERQg5I-153" vertex="1">
          <mxGeometry width="132" height="88" as="geometry" />
        </mxCell>
        <mxCell id="2LAl9BLSWvAE8NERQg5I-155" value="Pertence" style="text;html=1;align=center;verticalAlign=middle;whiteSpace=wrap;rounded=0;fillColor=none;fontColor=light-dark(#000000,#000000);fontSize=15;" parent="2LAl9BLSWvAE8NERQg5I-153" vertex="1">
          <mxGeometry x="16.5" y="29" width="99" height="30" as="geometry" />
        </mxCell>
        <mxCell id="2LAl9BLSWvAE8NERQg5I-156" value="" style="endArrow=none;html=1;rounded=0;fontSize=12;startSize=8;endSize=8;curved=1;entryX=0.5;entryY=1;entryDx=0;entryDy=0;strokeColor=light-dark(#000000,#000000);strokeWidth=2;exitX=0.5;exitY=0;exitDx=0;exitDy=0;" parent="1" source="sH1HxAaR-ODx4O14QXts-121" target="2LAl9BLSWvAE8NERQg5I-86" edge="1">
          <mxGeometry width="50" height="50" relative="1" as="geometry">
            <mxPoint x="315" y="-980" as="sourcePoint" />
            <mxPoint x="315" y="-1027" as="targetPoint" />
          </mxGeometry>
        </mxCell>
        <mxCell id="2LAl9BLSWvAE8NERQg5I-158" value="" style="endArrow=none;html=1;rounded=0;fontSize=12;startSize=8;endSize=8;curved=1;entryX=0.5;entryY=1;entryDx=0;entryDy=0;strokeColor=light-dark(#000000,#000000);strokeWidth=2;exitX=1;exitY=0.5;exitDx=0;exitDy=0;" parent="1" source="sH1HxAaR-ODx4O14QXts-123" target="2LAl9BLSWvAE8NERQg5I-154" edge="1">
          <mxGeometry width="50" height="50" relative="1" as="geometry">
            <mxPoint x="236" y="-745" as="sourcePoint" />
            <mxPoint x="262" y="-929" as="targetPoint" />
          </mxGeometry>
        </mxCell>
        <mxCell id="2LAl9BLSWvAE8NERQg5I-162" value="" style="group" parent="1" vertex="1" connectable="0">
          <mxGeometry x="-23" y="-666" width="90.5" height="29" as="geometry" />
        </mxCell>
        <mxCell id="2LAl9BLSWvAE8NERQg5I-163" value="" style="strokeWidth=2;html=1;shape=mxgraph.flowchart.terminator;whiteSpace=wrap;strokeColor=light-dark(#000000,#C0B652);gradientColor=light-dark(#000000,#CECE08);fillColor=light-dark(#FFFFFF,#FFFFFF);gradientDirection=radial;" parent="2LAl9BLSWvAE8NERQg5I-162" vertex="1">
          <mxGeometry width="90.5" height="29" as="geometry" />
        </mxCell>
        <mxCell id="2LAl9BLSWvAE8NERQg5I-164" value="Nível" style="text;html=1;align=center;verticalAlign=middle;whiteSpace=wrap;rounded=0;fillColor=none;fontColor=light-dark(#000000,#000000);fontSize=12;" parent="2LAl9BLSWvAE8NERQg5I-162" vertex="1">
          <mxGeometry x="27" y="9.870000000000005" width="36.5" height="9.25" as="geometry" />
        </mxCell>
        <mxCell id="2LAl9BLSWvAE8NERQg5I-165" value="" style="group" parent="1" vertex="1" connectable="0">
          <mxGeometry x="-23" y="-632" width="90.5" height="29" as="geometry" />
        </mxCell>
        <mxCell id="2LAl9BLSWvAE8NERQg5I-166" value="" style="strokeWidth=2;html=1;shape=mxgraph.flowchart.terminator;whiteSpace=wrap;strokeColor=light-dark(#000000,#C0B652);gradientColor=light-dark(#000000,#CECE08);fillColor=light-dark(#FFFFFF,#FFFFFF);gradientDirection=radial;" parent="2LAl9BLSWvAE8NERQg5I-165" vertex="1">
          <mxGeometry width="90.5" height="29" as="geometry" />
        </mxCell>
        <mxCell id="2LAl9BLSWvAE8NERQg5I-167" value="Carga Horária" style="text;html=1;align=center;verticalAlign=middle;whiteSpace=wrap;rounded=0;fillColor=none;fontColor=light-dark(#000000,#000000);fontSize=12;" parent="2LAl9BLSWvAE8NERQg5I-165" vertex="1">
          <mxGeometry x="27" y="9.870000000000005" width="36.5" height="9.25" as="geometry" />
        </mxCell>
        <mxCell id="2LAl9BLSWvAE8NERQg5I-168" value="" style="group" parent="1" vertex="1" connectable="0">
          <mxGeometry x="-22" y="-596" width="90.5" height="29" as="geometry" />
        </mxCell>
        <mxCell id="2LAl9BLSWvAE8NERQg5I-169" value="" style="strokeWidth=2;html=1;shape=mxgraph.flowchart.terminator;whiteSpace=wrap;strokeColor=light-dark(#000000,#C0B652);gradientColor=light-dark(#000000,#CECE08);fillColor=light-dark(#FFFFFF,#FFFFFF);gradientDirection=radial;" parent="2LAl9BLSWvAE8NERQg5I-168" vertex="1">
          <mxGeometry width="90.5" height="29" as="geometry" />
        </mxCell>
        <mxCell id="2LAl9BLSWvAE8NERQg5I-170" value="Vagas" style="text;html=1;align=center;verticalAlign=middle;whiteSpace=wrap;rounded=0;fillColor=none;fontColor=light-dark(#000000,#000000);fontSize=12;" parent="2LAl9BLSWvAE8NERQg5I-168" vertex="1">
          <mxGeometry x="27" y="9.870000000000005" width="36.5" height="9.25" as="geometry" />
        </mxCell>
        <mxCell id="2LAl9BLSWvAE8NERQg5I-171" value="" style="group" parent="1" vertex="1" connectable="0">
          <mxGeometry x="-789" y="-1028" width="90.5" height="29" as="geometry" />
        </mxCell>
        <mxCell id="2LAl9BLSWvAE8NERQg5I-172" value="" style="strokeWidth=2;html=1;shape=mxgraph.flowchart.terminator;whiteSpace=wrap;strokeColor=light-dark(#000000,#C0B652);gradientColor=light-dark(#000000,#CECE08);fillColor=light-dark(#FFFFFF,#FFFFFF);gradientDirection=radial;" parent="2LAl9BLSWvAE8NERQg5I-171" vertex="1">
          <mxGeometry width="90.5" height="29" as="geometry" />
        </mxCell>
        <mxCell id="2LAl9BLSWvAE8NERQg5I-173" value="PeríodoLetivo" style="text;html=1;align=center;verticalAlign=middle;whiteSpace=wrap;rounded=0;fillColor=none;fontColor=light-dark(#000000,#000000);fontSize=12;" parent="2LAl9BLSWvAE8NERQg5I-171" vertex="1">
          <mxGeometry x="27" y="9.870000000000005" width="36.5" height="9.25" as="geometry" />
        </mxCell>
        <mxCell id="2LAl9BLSWvAE8NERQg5I-175" value="" style="group" parent="1" vertex="1" connectable="0">
          <mxGeometry x="-787" y="-955" width="90.5" height="29" as="geometry" />
        </mxCell>
        <mxCell id="2LAl9BLSWvAE8NERQg5I-176" value="" style="strokeWidth=2;html=1;shape=mxgraph.flowchart.terminator;whiteSpace=wrap;strokeColor=light-dark(#000000,#C0B652);gradientColor=light-dark(#000000,#CECE08);fillColor=light-dark(#FFFFFF,#FFFFFF);gradientDirection=radial;" parent="2LAl9BLSWvAE8NERQg5I-175" vertex="1">
          <mxGeometry width="90.5" height="29" as="geometry" />
        </mxCell>
        <mxCell id="2LAl9BLSWvAE8NERQg5I-177" value="Notas" style="text;html=1;align=center;verticalAlign=middle;whiteSpace=wrap;rounded=0;fillColor=none;fontColor=light-dark(#000000,#000000);fontSize=12;" parent="2LAl9BLSWvAE8NERQg5I-175" vertex="1">
          <mxGeometry x="27" y="9.870000000000005" width="36.5" height="9.25" as="geometry" />
        </mxCell>
        <mxCell id="2LAl9BLSWvAE8NERQg5I-178" value="" style="group" parent="1" vertex="1" connectable="0">
          <mxGeometry x="-692.5" y="-990" width="90.5" height="29" as="geometry" />
        </mxCell>
        <mxCell id="2LAl9BLSWvAE8NERQg5I-179" value="" style="strokeWidth=2;html=1;shape=mxgraph.flowchart.terminator;whiteSpace=wrap;strokeColor=light-dark(#000000,#C0B652);gradientColor=light-dark(#000000,#CECE08);fillColor=light-dark(#FFFFFF,#FFFFFF);gradientDirection=radial;" parent="2LAl9BLSWvAE8NERQg5I-178" vertex="1">
          <mxGeometry width="90.5" height="29" as="geometry" />
        </mxCell>
        <mxCell id="2LAl9BLSWvAE8NERQg5I-180" value="Status" style="text;html=1;align=center;verticalAlign=middle;whiteSpace=wrap;rounded=0;fillColor=none;fontColor=light-dark(#000000,#000000);fontSize=12;" parent="2LAl9BLSWvAE8NERQg5I-178" vertex="1">
          <mxGeometry x="27" y="9.870000000000005" width="36.5" height="9.25" as="geometry" />
        </mxCell>
        <mxCell id="2LAl9BLSWvAE8NERQg5I-181" value="" style="group" parent="1" vertex="1" connectable="0">
          <mxGeometry x="-690" y="-955" width="90.5" height="29" as="geometry" />
        </mxCell>
        <mxCell id="2LAl9BLSWvAE8NERQg5I-182" value="" style="strokeWidth=2;html=1;shape=mxgraph.flowchart.terminator;whiteSpace=wrap;strokeColor=light-dark(#000000,#C0B652);gradientColor=light-dark(#000000,#CECE08);fillColor=light-dark(#FFFFFF,#FFFFFF);gradientDirection=radial;" parent="2LAl9BLSWvAE8NERQg5I-181" vertex="1">
          <mxGeometry width="90.5" height="29" as="geometry" />
        </mxCell>
        <mxCell id="2LAl9BLSWvAE8NERQg5I-183" value="Bolsa" style="text;html=1;align=center;verticalAlign=middle;whiteSpace=wrap;rounded=0;fillColor=none;fontColor=light-dark(#000000,#000000);fontSize=12;" parent="2LAl9BLSWvAE8NERQg5I-181" vertex="1">
          <mxGeometry x="27" y="9.870000000000005" width="36.5" height="9.25" as="geometry" />
        </mxCell>
        <mxCell id="2LAl9BLSWvAE8NERQg5I-184" value="" style="group" parent="1" vertex="1" connectable="0">
          <mxGeometry x="-505.75" y="-1242" width="90.5" height="29" as="geometry" />
        </mxCell>
        <mxCell id="2LAl9BLSWvAE8NERQg5I-185" value="" style="strokeWidth=2;html=1;shape=mxgraph.flowchart.terminator;whiteSpace=wrap;strokeColor=light-dark(#000000,#C0B652);gradientColor=light-dark(#000000,#CECE08);fillColor=light-dark(#FFFFFF,#FFFFFF);gradientDirection=radial;" parent="2LAl9BLSWvAE8NERQg5I-184" vertex="1">
          <mxGeometry width="90.5" height="29" as="geometry" />
        </mxCell>
        <mxCell id="2LAl9BLSWvAE8NERQg5I-186" value="Texto" style="text;html=1;align=center;verticalAlign=middle;whiteSpace=wrap;rounded=0;fillColor=none;fontColor=light-dark(#000000,#000000);fontSize=12;" parent="2LAl9BLSWvAE8NERQg5I-184" vertex="1">
          <mxGeometry x="27" y="9.870000000000005" width="36.5" height="9.25" as="geometry" />
        </mxCell>
        <mxCell id="2LAl9BLSWvAE8NERQg5I-188" value="" style="group" parent="1" vertex="1" connectable="0">
          <mxGeometry x="-505.75" y="-1207" width="90.5" height="29" as="geometry" />
        </mxCell>
        <mxCell id="2LAl9BLSWvAE8NERQg5I-189" value="" style="strokeWidth=2;html=1;shape=mxgraph.flowchart.terminator;whiteSpace=wrap;strokeColor=light-dark(#000000,#C0B652);gradientColor=light-dark(#000000,#CECE08);fillColor=light-dark(#FFFFFF,#FFFFFF);gradientDirection=radial;" parent="2LAl9BLSWvAE8NERQg5I-188" vertex="1">
          <mxGeometry width="90.5" height="29" as="geometry" />
        </mxCell>
        <mxCell id="2LAl9BLSWvAE8NERQg5I-190" value="Didática" style="text;html=1;align=center;verticalAlign=middle;whiteSpace=wrap;rounded=0;fillColor=none;fontColor=light-dark(#000000,#000000);fontSize=12;" parent="2LAl9BLSWvAE8NERQg5I-188" vertex="1">
          <mxGeometry x="27" y="9.870000000000005" width="36.5" height="9.25" as="geometry" />
        </mxCell>
        <mxCell id="2LAl9BLSWvAE8NERQg5I-191" value="" style="group" parent="1" vertex="1" connectable="0">
          <mxGeometry x="-505.75" y="-1173" width="90.5" height="29" as="geometry" />
        </mxCell>
        <mxCell id="2LAl9BLSWvAE8NERQg5I-192" value="" style="strokeWidth=2;html=1;shape=mxgraph.flowchart.terminator;whiteSpace=wrap;strokeColor=light-dark(#000000,#C0B652);gradientColor=light-dark(#000000,#CECE08);fillColor=light-dark(#FFFFFF,#FFFFFF);gradientDirection=radial;" parent="2LAl9BLSWvAE8NERQg5I-191" vertex="1">
          <mxGeometry width="90.5" height="29" as="geometry" />
        </mxCell>
        <mxCell id="2LAl9BLSWvAE8NERQg5I-193" value="Material" style="text;html=1;align=center;verticalAlign=middle;whiteSpace=wrap;rounded=0;fillColor=none;fontColor=light-dark(#000000,#000000);fontSize=12;" parent="2LAl9BLSWvAE8NERQg5I-191" vertex="1">
          <mxGeometry x="27" y="9.870000000000005" width="36.5" height="9.25" as="geometry" />
        </mxCell>
        <mxCell id="2LAl9BLSWvAE8NERQg5I-194" value="" style="group" parent="1" vertex="1" connectable="0">
          <mxGeometry x="-411" y="-1207" width="90.5" height="29" as="geometry" />
        </mxCell>
        <mxCell id="2LAl9BLSWvAE8NERQg5I-195" value="" style="strokeWidth=2;html=1;shape=mxgraph.flowchart.terminator;whiteSpace=wrap;strokeColor=light-dark(#000000,#C0B652);gradientColor=light-dark(#000000,#CECE08);fillColor=light-dark(#FFFFFF,#FFFFFF);gradientDirection=radial;" parent="2LAl9BLSWvAE8NERQg5I-194" vertex="1">
          <mxGeometry width="90.5" height="29" as="geometry" />
        </mxCell>
        <mxCell id="2LAl9BLSWvAE8NERQg5I-196" value="Conteúdo" style="text;html=1;align=center;verticalAlign=middle;whiteSpace=wrap;rounded=0;fillColor=none;fontColor=light-dark(#000000,#000000);fontSize=12;" parent="2LAl9BLSWvAE8NERQg5I-194" vertex="1">
          <mxGeometry x="27" y="9.870000000000005" width="36.5" height="9.25" as="geometry" />
        </mxCell>
        <mxCell id="2LAl9BLSWvAE8NERQg5I-197" value="" style="group" parent="1" vertex="1" connectable="0">
          <mxGeometry x="-411" y="-1173" width="90.5" height="29" as="geometry" />
        </mxCell>
        <mxCell id="2LAl9BLSWvAE8NERQg5I-198" value="" style="strokeWidth=2;html=1;shape=mxgraph.flowchart.terminator;whiteSpace=wrap;strokeColor=light-dark(#000000,#C0B652);gradientColor=light-dark(#000000,#CECE08);fillColor=light-dark(#FFFFFF,#FFFFFF);gradientDirection=radial;" parent="2LAl9BLSWvAE8NERQg5I-197" vertex="1">
          <mxGeometry width="90.5" height="29" as="geometry" />
        </mxCell>
        <mxCell id="2LAl9BLSWvAE8NERQg5I-199" value="Infraestrutura" style="text;html=1;align=center;verticalAlign=middle;whiteSpace=wrap;rounded=0;fillColor=none;fontColor=light-dark(#000000,#000000);fontSize=12;" parent="2LAl9BLSWvAE8NERQg5I-197" vertex="1">
          <mxGeometry x="27" y="9.870000000000005" width="36.5" height="9.25" as="geometry" />
        </mxCell>
        <mxCell id="2LAl9BLSWvAE8NERQg5I-200" value="" style="group" parent="1" vertex="1" connectable="0">
          <mxGeometry x="-347" y="-1363" width="90.5" height="29" as="geometry" />
        </mxCell>
        <mxCell id="2LAl9BLSWvAE8NERQg5I-201" value="" style="strokeWidth=2;html=1;shape=mxgraph.flowchart.terminator;whiteSpace=wrap;strokeColor=light-dark(#000000,#C0B652);gradientColor=light-dark(#000000,#CECE08);fillColor=light-dark(#FFFFFF,#FFFFFF);gradientDirection=radial;" parent="2LAl9BLSWvAE8NERQg5I-200" vertex="1">
          <mxGeometry width="90.5" height="29" as="geometry" />
        </mxCell>
        <mxCell id="2LAl9BLSWvAE8NERQg5I-202" value="Texto" style="text;html=1;align=center;verticalAlign=middle;whiteSpace=wrap;rounded=0;fillColor=none;fontColor=light-dark(#000000,#000000);fontSize=12;" parent="2LAl9BLSWvAE8NERQg5I-200" vertex="1">
          <mxGeometry x="27" y="9.870000000000005" width="36.5" height="9.25" as="geometry" />
        </mxCell>
        <mxCell id="2LAl9BLSWvAE8NERQg5I-203" value="" style="group" parent="1" vertex="1" connectable="0">
          <mxGeometry x="-347" y="-1325.5" width="90.5" height="29" as="geometry" />
        </mxCell>
        <mxCell id="2LAl9BLSWvAE8NERQg5I-204" value="" style="strokeWidth=2;html=1;shape=mxgraph.flowchart.terminator;whiteSpace=wrap;strokeColor=light-dark(#000000,#C0B652);gradientColor=light-dark(#000000,#CECE08);fillColor=light-dark(#FFFFFF,#FFFFFF);gradientDirection=radial;" parent="2LAl9BLSWvAE8NERQg5I-203" vertex="1">
          <mxGeometry width="90.5" height="29" as="geometry" />
        </mxCell>
        <mxCell id="2LAl9BLSWvAE8NERQg5I-205" value="Didática" style="text;html=1;align=center;verticalAlign=middle;whiteSpace=wrap;rounded=0;fillColor=none;fontColor=light-dark(#000000,#000000);fontSize=12;" parent="2LAl9BLSWvAE8NERQg5I-203" vertex="1">
          <mxGeometry x="27" y="9.870000000000005" width="36.5" height="9.25" as="geometry" />
        </mxCell>
        <mxCell id="2LAl9BLSWvAE8NERQg5I-206" value="" style="group" parent="1" vertex="1" connectable="0">
          <mxGeometry x="425.75" y="-1176" width="90.5" height="29" as="geometry" />
        </mxCell>
        <mxCell id="2LAl9BLSWvAE8NERQg5I-207" value="" style="strokeWidth=2;html=1;shape=mxgraph.flowchart.terminator;whiteSpace=wrap;strokeColor=light-dark(#000000,#C0B652);gradientColor=light-dark(#000000,#CECE08);fillColor=light-dark(#FFFFFF,#FFFFFF);gradientDirection=radial;" parent="2LAl9BLSWvAE8NERQg5I-206" vertex="1">
          <mxGeometry width="90.5" height="29" as="geometry" />
        </mxCell>
        <mxCell id="2LAl9BLSWvAE8NERQg5I-208" value="Nome" style="text;html=1;align=center;verticalAlign=middle;whiteSpace=wrap;rounded=0;fillColor=none;fontColor=light-dark(#000000,#000000);fontSize=12;" parent="2LAl9BLSWvAE8NERQg5I-206" vertex="1">
          <mxGeometry x="27" y="9.870000000000005" width="36.5" height="9.25" as="geometry" />
        </mxCell>
        <mxCell id="2LAl9BLSWvAE8NERQg5I-209" value="" style="group" parent="1" vertex="1" connectable="0">
          <mxGeometry x="408" y="-1140" width="126" height="29" as="geometry" />
        </mxCell>
        <mxCell id="2LAl9BLSWvAE8NERQg5I-210" value="" style="strokeWidth=2;html=1;shape=mxgraph.flowchart.terminator;whiteSpace=wrap;strokeColor=light-dark(#000000,#C0B652);gradientColor=light-dark(#000000,#CECE08);fillColor=light-dark(#FFFFFF,#FFFFFF);gradientDirection=radial;" parent="2LAl9BLSWvAE8NERQg5I-209" vertex="1">
          <mxGeometry width="126.00000000000003" height="29" as="geometry" />
        </mxCell>
        <mxCell id="2LAl9BLSWvAE8NERQg5I-211" value="CódigoDepartamento" style="text;html=1;align=center;verticalAlign=middle;whiteSpace=wrap;rounded=0;fillColor=none;fontColor=light-dark(#000000,#000000);fontSize=12;fontStyle=4" parent="2LAl9BLSWvAE8NERQg5I-209" vertex="1">
          <mxGeometry x="37.59116022099448" y="9.870000000000005" width="50.81767955801105" height="9.25" as="geometry" />
        </mxCell>
        <mxCell id="2LAl9BLSWvAE8NERQg5I-221" value="" style="group" parent="1" vertex="1" connectable="0">
          <mxGeometry x="425.75" y="-1105" width="90.5" height="29" as="geometry" />
        </mxCell>
        <mxCell id="2LAl9BLSWvAE8NERQg5I-222" value="" style="strokeWidth=2;html=1;shape=mxgraph.flowchart.terminator;whiteSpace=wrap;strokeColor=light-dark(#000000,#A44C00);gradientColor=light-dark(#000000,#BA5500);fillColor=light-dark(#FFFFFF,#FFFFFF);gradientDirection=radial;" parent="2LAl9BLSWvAE8NERQg5I-221" vertex="1">
          <mxGeometry width="90.5" height="29" as="geometry" />
        </mxCell>
        <mxCell id="2LAl9BLSWvAE8NERQg5I-223" value="Professor Chefe" style="text;html=1;align=center;verticalAlign=middle;whiteSpace=wrap;rounded=0;fillColor=none;fontColor=light-dark(#000000,#000000);fontSize=12;" parent="2LAl9BLSWvAE8NERQg5I-221" vertex="1">
          <mxGeometry x="27" y="9.870000000000005" width="36.5" height="9.25" as="geometry" />
        </mxCell>
        <mxCell id="2LAl9BLSWvAE8NERQg5I-231" value="" style="group" parent="1" vertex="1" connectable="0">
          <mxGeometry x="-1249" y="-838" width="90.5" height="29" as="geometry" />
        </mxCell>
        <mxCell id="2LAl9BLSWvAE8NERQg5I-232" value="" style="strokeWidth=2;html=1;shape=mxgraph.flowchart.terminator;whiteSpace=wrap;strokeColor=light-dark(#000000,#C0B652);gradientColor=light-dark(#000000,#CECE08);fillColor=light-dark(#FFFFFF,#FFFFFF);gradientDirection=radial;" parent="2LAl9BLSWvAE8NERQg5I-231" vertex="1">
          <mxGeometry width="90.5" height="29" as="geometry" />
        </mxCell>
        <mxCell id="2LAl9BLSWvAE8NERQg5I-233" value="Estado" style="text;html=1;align=center;verticalAlign=middle;whiteSpace=wrap;rounded=0;fillColor=none;fontColor=light-dark(#000000,#000000);fontSize=12;" parent="2LAl9BLSWvAE8NERQg5I-231" vertex="1">
          <mxGeometry x="27" y="9.870000000000005" width="36.5" height="9.25" as="geometry" />
        </mxCell>
        <mxCell id="2LAl9BLSWvAE8NERQg5I-234" value="" style="group" parent="1" vertex="1" connectable="0">
          <mxGeometry x="-1249" y="-804" width="90.5" height="29" as="geometry" />
        </mxCell>
        <mxCell id="2LAl9BLSWvAE8NERQg5I-235" value="" style="strokeWidth=2;html=1;shape=mxgraph.flowchart.terminator;whiteSpace=wrap;strokeColor=light-dark(#000000,#C0B652);gradientColor=light-dark(#000000,#CECE08);fillColor=light-dark(#FFFFFF,#FFFFFF);gradientDirection=radial;" parent="2LAl9BLSWvAE8NERQg5I-234" vertex="1">
          <mxGeometry width="90.5" height="29" as="geometry" />
        </mxCell>
        <mxCell id="2LAl9BLSWvAE8NERQg5I-236" value="País" style="text;html=1;align=center;verticalAlign=middle;whiteSpace=wrap;rounded=0;fillColor=none;fontColor=light-dark(#000000,#000000);fontSize=12;" parent="2LAl9BLSWvAE8NERQg5I-234" vertex="1">
          <mxGeometry x="27" y="9.870000000000005" width="36.5" height="9.25" as="geometry" />
        </mxCell>
        <mxCell id="2LAl9BLSWvAE8NERQg5I-244" value="" style="group" parent="1" vertex="1" connectable="0">
          <mxGeometry x="98" y="-1164" width="90.5" height="29" as="geometry" />
        </mxCell>
        <mxCell id="2LAl9BLSWvAE8NERQg5I-245" value="" style="strokeWidth=2;html=1;shape=mxgraph.flowchart.terminator;whiteSpace=wrap;strokeColor=light-dark(#000000,#C0B652);gradientColor=light-dark(#000000,#CECE08);fillColor=light-dark(#FFFFFF,#FFFFFF);gradientDirection=radial;" parent="2LAl9BLSWvAE8NERQg5I-244" vertex="1">
          <mxGeometry width="90.5" height="29" as="geometry" />
        </mxCell>
        <mxCell id="2LAl9BLSWvAE8NERQg5I-246" value="Aulas semanais" style="text;html=1;align=center;verticalAlign=middle;whiteSpace=wrap;rounded=0;fillColor=none;fontColor=light-dark(#000000,#000000);fontSize=12;" parent="2LAl9BLSWvAE8NERQg5I-244" vertex="1">
          <mxGeometry x="27" y="9.870000000000005" width="36.5" height="9.25" as="geometry" />
        </mxCell>
        <mxCell id="2LAl9BLSWvAE8NERQg5I-254" value="" style="group" parent="1" vertex="1" connectable="0">
          <mxGeometry x="98" y="-1122" width="90.5" height="29" as="geometry" />
        </mxCell>
        <mxCell id="2LAl9BLSWvAE8NERQg5I-255" value="" style="strokeWidth=2;html=1;shape=mxgraph.flowchart.terminator;whiteSpace=wrap;strokeColor=light-dark(#000000,#78B300);gradientColor=light-dark(#000000,#A6E500);fillColor=light-dark(#FFFFFF,#FFFFFF);gradientDirection=radial;" parent="2LAl9BLSWvAE8NERQg5I-254" vertex="1">
          <mxGeometry width="90.5" height="29" as="geometry" />
        </mxCell>
        <mxCell id="2LAl9BLSWvAE8NERQg5I-256" value="Material Didático" style="text;html=1;align=center;verticalAlign=middle;whiteSpace=wrap;rounded=0;fillColor=none;fontColor=light-dark(#000000,#000000);fontSize=12;" parent="2LAl9BLSWvAE8NERQg5I-254" vertex="1">
          <mxGeometry x="27" y="9.870000000000005" width="36.5" height="9.25" as="geometry" />
        </mxCell>
        <mxCell id="2LAl9BLSWvAE8NERQg5I-257" value="" style="endArrow=none;html=1;rounded=0;strokeColor=light-dark(#000000,#000000);entryX=0.843;entryY=0.092;entryDx=0;entryDy=0;entryPerimeter=0;strokeWidth=2;" parent="2LAl9BLSWvAE8NERQg5I-254" target="2LAl9BLSWvAE8NERQg5I-255" edge="1">
          <mxGeometry width="50" height="50" relative="1" as="geometry">
            <mxPoint x="66" y="28" as="sourcePoint" />
            <mxPoint x="87" y="-8" as="targetPoint" />
          </mxGeometry>
        </mxCell>
        <mxCell id="2LAl9BLSWvAE8NERQg5I-258" value="" style="group" parent="1" vertex="1" connectable="0">
          <mxGeometry x="98" y="-1085" width="90.5" height="29" as="geometry" />
        </mxCell>
        <mxCell id="2LAl9BLSWvAE8NERQg5I-259" value="" style="strokeWidth=2;html=1;shape=mxgraph.flowchart.terminator;whiteSpace=wrap;strokeColor=light-dark(#000000,#78B300);gradientColor=light-dark(#000000,#A6E500);fillColor=light-dark(#FFFFFF,#FFFFFF);gradientDirection=radial;" parent="2LAl9BLSWvAE8NERQg5I-258" vertex="1">
          <mxGeometry width="90.5" height="29" as="geometry" />
        </mxCell>
        <mxCell id="2LAl9BLSWvAE8NERQg5I-260" value="Regras" style="text;html=1;align=center;verticalAlign=middle;whiteSpace=wrap;rounded=0;fillColor=none;fontColor=light-dark(#000000,#000000);fontSize=12;" parent="2LAl9BLSWvAE8NERQg5I-258" vertex="1">
          <mxGeometry x="27" y="9.870000000000005" width="36.5" height="9.25" as="geometry" />
        </mxCell>
        <mxCell id="2LAl9BLSWvAE8NERQg5I-261" value="" style="endArrow=none;html=1;rounded=0;strokeColor=light-dark(#000000,#000000);entryX=0.843;entryY=0.092;entryDx=0;entryDy=0;entryPerimeter=0;strokeWidth=2;" parent="2LAl9BLSWvAE8NERQg5I-258" target="2LAl9BLSWvAE8NERQg5I-259" edge="1">
          <mxGeometry width="50" height="50" relative="1" as="geometry">
            <mxPoint x="66" y="28" as="sourcePoint" />
            <mxPoint x="87" y="-8" as="targetPoint" />
          </mxGeometry>
        </mxCell>
        <mxCell id="2LAl9BLSWvAE8NERQg5I-262" value="" style="group" parent="1" vertex="1" connectable="0">
          <mxGeometry x="98" y="-1050" width="90.5" height="29" as="geometry" />
        </mxCell>
        <mxCell id="2LAl9BLSWvAE8NERQg5I-263" value="" style="strokeWidth=2;html=1;shape=mxgraph.flowchart.terminator;whiteSpace=wrap;strokeColor=light-dark(#000000,#78B300);gradientColor=light-dark(#000000,#A6E500);fillColor=light-dark(#FFFFFF,#FFFFFF);gradientDirection=radial;" parent="2LAl9BLSWvAE8NERQg5I-262" vertex="1">
          <mxGeometry width="90.5" height="29" as="geometry" />
        </mxCell>
        <mxCell id="2LAl9BLSWvAE8NERQg5I-264" value="Infraestrutura" style="text;html=1;align=center;verticalAlign=middle;whiteSpace=wrap;rounded=0;fillColor=none;fontColor=light-dark(#000000,#000000);fontSize=12;" parent="2LAl9BLSWvAE8NERQg5I-262" vertex="1">
          <mxGeometry x="27" y="9.870000000000005" width="36.5" height="9.25" as="geometry" />
        </mxCell>
        <mxCell id="2LAl9BLSWvAE8NERQg5I-265" value="" style="endArrow=none;html=1;rounded=0;strokeColor=light-dark(#000000,#000000);entryX=0.843;entryY=0.092;entryDx=0;entryDy=0;entryPerimeter=0;strokeWidth=2;" parent="2LAl9BLSWvAE8NERQg5I-262" target="2LAl9BLSWvAE8NERQg5I-263" edge="1">
          <mxGeometry width="50" height="50" relative="1" as="geometry">
            <mxPoint x="66" y="28" as="sourcePoint" />
            <mxPoint x="87" y="-8" as="targetPoint" />
          </mxGeometry>
        </mxCell>
        <mxCell id="2LAl9BLSWvAE8NERQg5I-266" value="" style="group" parent="1" vertex="1" connectable="0">
          <mxGeometry x="96" y="-1010" width="90.5" height="29" as="geometry" />
        </mxCell>
        <mxCell id="2LAl9BLSWvAE8NERQg5I-267" value="" style="strokeWidth=2;html=1;shape=mxgraph.flowchart.terminator;whiteSpace=wrap;strokeColor=light-dark(#000000,#C0B652);gradientColor=light-dark(#000000,#CECE08);fillColor=light-dark(#FFFFFF,#FFFFFF);gradientDirection=radial;" parent="2LAl9BLSWvAE8NERQg5I-266" vertex="1">
          <mxGeometry width="90.5" height="29" as="geometry" />
        </mxCell>
        <mxCell id="2LAl9BLSWvAE8NERQg5I-268" value="Capacidade da Turma" style="text;html=1;align=center;verticalAlign=middle;whiteSpace=wrap;rounded=0;fillColor=none;fontColor=light-dark(#000000,#000000);fontSize=12;" parent="2LAl9BLSWvAE8NERQg5I-266" vertex="1">
          <mxGeometry x="27" y="9.870000000000005" width="36.5" height="9.25" as="geometry" />
        </mxCell>
        <mxCell id="2LAl9BLSWvAE8NERQg5I-277" value="" style="group" parent="1" vertex="1" connectable="0">
          <mxGeometry x="-335" y="-1992" width="90.5" height="29" as="geometry" />
        </mxCell>
        <mxCell id="2LAl9BLSWvAE8NERQg5I-278" value="" style="strokeWidth=2;html=1;shape=mxgraph.flowchart.terminator;whiteSpace=wrap;strokeColor=light-dark(#000000,#A44C00);gradientColor=light-dark(#000000,#BA5500);fillColor=light-dark(#FFFFFF,#FFFFFF);gradientDirection=radial;" parent="2LAl9BLSWvAE8NERQg5I-277" vertex="1">
          <mxGeometry width="90.5" height="29" as="geometry" />
        </mxCell>
        <mxCell id="2LAl9BLSWvAE8NERQg5I-279" value="Endereço" style="text;html=1;align=center;verticalAlign=middle;whiteSpace=wrap;rounded=0;fillColor=none;fontColor=light-dark(#000000,#000000);fontSize=12;" parent="2LAl9BLSWvAE8NERQg5I-277" vertex="1">
          <mxGeometry x="27" y="9.870000000000005" width="36.5" height="9.25" as="geometry" />
        </mxCell>
        <mxCell id="2LAl9BLSWvAE8NERQg5I-282" value="" style="group;fontStyle=0" parent="1" vertex="1" connectable="0">
          <mxGeometry x="-336" y="-2172" width="90.5" height="29" as="geometry" />
        </mxCell>
        <mxCell id="2LAl9BLSWvAE8NERQg5I-283" value="" style="strokeWidth=2;html=1;shape=mxgraph.flowchart.terminator;whiteSpace=wrap;strokeColor=light-dark(#000000,#C0B652);gradientColor=light-dark(#000000,#CECE08);fillColor=light-dark(#FFFFFF,#FFFFFF);gradientDirection=radial;" parent="2LAl9BLSWvAE8NERQg5I-282" vertex="1">
          <mxGeometry width="90.5" height="29" as="geometry" />
        </mxCell>
        <mxCell id="2LAl9BLSWvAE8NERQg5I-284" value="Nome" style="text;html=1;align=center;verticalAlign=middle;whiteSpace=wrap;rounded=0;fillColor=none;fontColor=light-dark(#000000,#000000);fontSize=12;fontStyle=4" parent="2LAl9BLSWvAE8NERQg5I-282" vertex="1">
          <mxGeometry x="27" y="9.870000000000005" width="36.5" height="9.25" as="geometry" />
        </mxCell>
        <mxCell id="2LAl9BLSWvAE8NERQg5I-288" value="" style="group;fontStyle=4" parent="1" vertex="1" connectable="0">
          <mxGeometry x="-336" y="-2138" width="90.5" height="29" as="geometry" />
        </mxCell>
        <mxCell id="2LAl9BLSWvAE8NERQg5I-289" value="" style="strokeWidth=2;html=1;shape=mxgraph.flowchart.terminator;whiteSpace=wrap;strokeColor=light-dark(#000000,#C0B652);gradientColor=light-dark(#000000,#CECE08);fillColor=light-dark(#FFFFFF,#FFFFFF);gradientDirection=radial;" parent="2LAl9BLSWvAE8NERQg5I-288" vertex="1">
          <mxGeometry width="90.5" height="29" as="geometry" />
        </mxCell>
        <mxCell id="2LAl9BLSWvAE8NERQg5I-290" value="Sobrenome" style="text;html=1;align=center;verticalAlign=middle;whiteSpace=wrap;rounded=0;fillColor=none;fontColor=light-dark(#000000,#000000);fontSize=12;fontStyle=4" parent="2LAl9BLSWvAE8NERQg5I-288" vertex="1">
          <mxGeometry x="27" y="9.870000000000005" width="36.5" height="9.25" as="geometry" />
        </mxCell>
        <mxCell id="2LAl9BLSWvAE8NERQg5I-296" value="" style="group;fontStyle=1" parent="1" vertex="1" connectable="0">
          <mxGeometry x="-335" y="-2064" width="90.5" height="29" as="geometry" />
        </mxCell>
        <mxCell id="2LAl9BLSWvAE8NERQg5I-297" value="" style="strokeWidth=2;html=1;shape=mxgraph.flowchart.terminator;whiteSpace=wrap;strokeColor=light-dark(#000000,#C0B652);gradientColor=light-dark(#000000,#CECE08);fillColor=light-dark(#FFFFFF,#FFFFFF);gradientDirection=radial;" parent="2LAl9BLSWvAE8NERQg5I-296" vertex="1">
          <mxGeometry width="90.5" height="29" as="geometry" />
        </mxCell>
        <mxCell id="2LAl9BLSWvAE8NERQg5I-298" value="Nascimento" style="text;html=1;align=center;verticalAlign=middle;whiteSpace=wrap;rounded=0;fillColor=none;fontColor=light-dark(#000000,#000000);fontSize=12;" parent="2LAl9BLSWvAE8NERQg5I-296" vertex="1">
          <mxGeometry x="27" y="9.870000000000005" width="36.5" height="9.25" as="geometry" />
        </mxCell>
        <mxCell id="2LAl9BLSWvAE8NERQg5I-299" value="" style="group;fontStyle=5" parent="1" vertex="1" connectable="0">
          <mxGeometry x="-336" y="-2102" width="90.5" height="29" as="geometry" />
        </mxCell>
        <mxCell id="2LAl9BLSWvAE8NERQg5I-300" value="" style="strokeWidth=2;html=1;shape=mxgraph.flowchart.terminator;whiteSpace=wrap;strokeColor=light-dark(#000000,#C0B652);gradientColor=light-dark(#000000,#CECE08);fillColor=light-dark(#FFFFFF,#FFFFFF);gradientDirection=radial;" parent="2LAl9BLSWvAE8NERQg5I-299" vertex="1">
          <mxGeometry width="90.5" height="29" as="geometry" />
        </mxCell>
        <mxCell id="2LAl9BLSWvAE8NERQg5I-301" value="Número de telefone" style="text;html=1;align=center;verticalAlign=middle;whiteSpace=wrap;rounded=0;fillColor=none;fontColor=light-dark(#000000,#000000);fontSize=12;fontStyle=4" parent="2LAl9BLSWvAE8NERQg5I-299" vertex="1">
          <mxGeometry x="6" y="9.87" width="78" height="9.25" as="geometry" />
        </mxCell>
        <mxCell id="2LAl9BLSWvAE8NERQg5I-302" value="" style="group" parent="1" vertex="1" connectable="0">
          <mxGeometry x="-80.25" y="-1690" width="90.5" height="29" as="geometry" />
        </mxCell>
        <mxCell id="2LAl9BLSWvAE8NERQg5I-303" value="" style="strokeWidth=2;html=1;shape=mxgraph.flowchart.terminator;whiteSpace=wrap;strokeColor=light-dark(#000000,#C0B652);gradientColor=light-dark(#000000,#CECE08);fillColor=light-dark(#FFFFFF,#FFFFFF);gradientDirection=radial;" parent="2LAl9BLSWvAE8NERQg5I-302" vertex="1">
          <mxGeometry width="90.5" height="29" as="geometry" />
        </mxCell>
        <mxCell id="2LAl9BLSWvAE8NERQg5I-304" value="Especialização" style="text;html=1;align=center;verticalAlign=middle;whiteSpace=wrap;rounded=0;fillColor=none;fontColor=light-dark(#000000,#000000);fontSize=12;" parent="2LAl9BLSWvAE8NERQg5I-302" vertex="1">
          <mxGeometry x="27" y="9.870000000000005" width="36.5" height="9.25" as="geometry" />
        </mxCell>
        <mxCell id="2LAl9BLSWvAE8NERQg5I-305" value="" style="group" parent="1" vertex="1" connectable="0">
          <mxGeometry x="-80.25" y="-1656" width="90.5" height="29" as="geometry" />
        </mxCell>
        <mxCell id="2LAl9BLSWvAE8NERQg5I-306" value="" style="strokeWidth=2;html=1;shape=mxgraph.flowchart.terminator;whiteSpace=wrap;strokeColor=light-dark(#000000,#C0B652);gradientColor=light-dark(#000000,#CECE08);fillColor=light-dark(#FFFFFF,#FFFFFF);gradientDirection=radial;" parent="2LAl9BLSWvAE8NERQg5I-305" vertex="1">
          <mxGeometry width="90.5" height="29" as="geometry" />
        </mxCell>
        <mxCell id="2LAl9BLSWvAE8NERQg5I-307" value="Titulação" style="text;html=1;align=center;verticalAlign=middle;whiteSpace=wrap;rounded=0;fillColor=none;fontColor=light-dark(#000000,#000000);fontSize=12;" parent="2LAl9BLSWvAE8NERQg5I-305" vertex="1">
          <mxGeometry x="27" y="9.870000000000005" width="36.5" height="9.25" as="geometry" />
        </mxCell>
        <mxCell id="sH1HxAaR-ODx4O14QXts-2" value="" style="group" parent="1" vertex="1" connectable="0">
          <mxGeometry x="92.25" y="-1202" width="98" height="29" as="geometry" />
        </mxCell>
        <mxCell id="sH1HxAaR-ODx4O14QXts-3" value="" style="strokeWidth=2;html=1;shape=mxgraph.flowchart.terminator;whiteSpace=wrap;strokeColor=light-dark(#000000,#C0B652);gradientColor=light-dark(#000000,#CECE08);fillColor=light-dark(#FFFFFF,#FFFFFF);gradientDirection=radial;" parent="sH1HxAaR-ODx4O14QXts-2" vertex="1">
          <mxGeometry width="97.99999999999999" height="29" as="geometry" />
        </mxCell>
        <mxCell id="sH1HxAaR-ODx4O14QXts-4" value="Sigla" style="text;html=1;align=center;verticalAlign=middle;whiteSpace=wrap;rounded=0;fillColor=none;fontColor=light-dark(#000000,#000000);fontSize=12;fontStyle=4" parent="sH1HxAaR-ODx4O14QXts-2" vertex="1">
          <mxGeometry x="29.237569060773478" y="9.870000000000005" width="39.52486187845304" height="9.25" as="geometry" />
        </mxCell>
        <mxCell id="sH1HxAaR-ODx4O14QXts-6" value="" style="edgeStyle=none;curved=1;rounded=0;orthogonalLoop=1;jettySize=auto;html=1;fontSize=12;startSize=8;endSize=8;" parent="1" source="0nftsuG1MuF5SbFmwNqy-9" target="jVbXVxqvNYoYon0j-dt1-25" edge="1">
          <mxGeometry relative="1" as="geometry" />
        </mxCell>
        <mxCell id="sH1HxAaR-ODx4O14QXts-22" value="" style="group" parent="1" vertex="1" connectable="0">
          <mxGeometry x="-1250" y="-942" width="90.5" height="29" as="geometry" />
        </mxCell>
        <mxCell id="sH1HxAaR-ODx4O14QXts-23" value="" style="strokeWidth=2;html=1;shape=mxgraph.flowchart.terminator;whiteSpace=wrap;strokeColor=light-dark(#000000,#C0B652);gradientColor=light-dark(#000000,#CECE08);fillColor=light-dark(#FFFFFF,#FFFFFF);gradientDirection=radial;" parent="sH1HxAaR-ODx4O14QXts-22" vertex="1">
          <mxGeometry width="90.5" height="29" as="geometry" />
        </mxCell>
        <mxCell id="sH1HxAaR-ODx4O14QXts-24" value="Prédio" style="text;html=1;align=center;verticalAlign=middle;whiteSpace=wrap;rounded=0;fillColor=none;fontColor=light-dark(#000000,#000000);fontSize=12;" parent="sH1HxAaR-ODx4O14QXts-22" vertex="1">
          <mxGeometry x="27" y="9.870000000000005" width="36.5" height="9.25" as="geometry" />
        </mxCell>
        <mxCell id="sH1HxAaR-ODx4O14QXts-25" value="" style="group" parent="1" vertex="1" connectable="0">
          <mxGeometry x="-1250" y="-908" width="90.5" height="29" as="geometry" />
        </mxCell>
        <mxCell id="sH1HxAaR-ODx4O14QXts-26" value="" style="strokeWidth=2;html=1;shape=mxgraph.flowchart.terminator;whiteSpace=wrap;strokeColor=light-dark(#000000,#C0B652);gradientColor=light-dark(#000000,#CECE08);fillColor=light-dark(#FFFFFF,#FFFFFF);gradientDirection=radial;" parent="sH1HxAaR-ODx4O14QXts-25" vertex="1">
          <mxGeometry width="90.5" height="29" as="geometry" />
        </mxCell>
        <mxCell id="sH1HxAaR-ODx4O14QXts-27" value="Bloco" style="text;html=1;align=center;verticalAlign=middle;whiteSpace=wrap;rounded=0;fillColor=none;fontColor=light-dark(#000000,#000000);fontSize=12;" parent="sH1HxAaR-ODx4O14QXts-25" vertex="1">
          <mxGeometry x="27" y="9.870000000000005" width="36.5" height="9.25" as="geometry" />
        </mxCell>
        <mxCell id="sH1HxAaR-ODx4O14QXts-28" value="" style="group" parent="1" vertex="1" connectable="0">
          <mxGeometry x="-1251" y="-874" width="90.5" height="29" as="geometry" />
        </mxCell>
        <mxCell id="sH1HxAaR-ODx4O14QXts-29" value="" style="strokeWidth=2;html=1;shape=mxgraph.flowchart.terminator;whiteSpace=wrap;strokeColor=light-dark(#000000,#C0B652);gradientColor=light-dark(#000000,#CECE08);fillColor=light-dark(#FFFFFF,#FFFFFF);gradientDirection=radial;" parent="sH1HxAaR-ODx4O14QXts-28" vertex="1">
          <mxGeometry width="90.5" height="29" as="geometry" />
        </mxCell>
        <mxCell id="sH1HxAaR-ODx4O14QXts-30" value="Cidade" style="text;html=1;align=center;verticalAlign=middle;whiteSpace=wrap;rounded=0;fillColor=none;fontColor=light-dark(#000000,#000000);fontSize=12;" parent="sH1HxAaR-ODx4O14QXts-28" vertex="1">
          <mxGeometry x="27" y="9.870000000000005" width="36.5" height="9.25" as="geometry" />
        </mxCell>
        <mxCell id="sH1HxAaR-ODx4O14QXts-31" value="" style="group" parent="1" vertex="1" connectable="0">
          <mxGeometry x="-1249" y="-976" width="90.5" height="29" as="geometry" />
        </mxCell>
        <mxCell id="sH1HxAaR-ODx4O14QXts-32" value="" style="strokeWidth=2;html=1;shape=mxgraph.flowchart.terminator;whiteSpace=wrap;strokeColor=light-dark(#000000,#C0B652);gradientColor=light-dark(#000000,#CECE08);fillColor=light-dark(#FFFFFF,#FFFFFF);gradientDirection=radial;" parent="sH1HxAaR-ODx4O14QXts-31" vertex="1">
          <mxGeometry width="90.5" height="29" as="geometry" />
        </mxCell>
        <mxCell id="sH1HxAaR-ODx4O14QXts-33" value="Nome" style="text;html=1;align=center;verticalAlign=middle;whiteSpace=wrap;rounded=0;fillColor=none;fontColor=light-dark(#000000,#000000);fontSize=12;fontStyle=4" parent="sH1HxAaR-ODx4O14QXts-31" vertex="1">
          <mxGeometry x="27" y="9.870000000000005" width="36.5" height="9.25" as="geometry" />
        </mxCell>
        <mxCell id="sH1HxAaR-ODx4O14QXts-55" value="" style="group" parent="1" vertex="1" connectable="0">
          <mxGeometry x="-517" y="-1707" width="90.5" height="29" as="geometry" />
        </mxCell>
        <mxCell id="sH1HxAaR-ODx4O14QXts-56" value="" style="strokeWidth=2;html=1;shape=mxgraph.flowchart.terminator;whiteSpace=wrap;strokeColor=light-dark(#000000,#C0B652);gradientColor=light-dark(#000000,#CECE08);fillColor=light-dark(#FFFFFF,#FFFFFF);gradientDirection=radial;" parent="sH1HxAaR-ODx4O14QXts-55" vertex="1">
          <mxGeometry width="90.5" height="29" as="geometry" />
        </mxCell>
        <mxCell id="sH1HxAaR-ODx4O14QXts-57" value="Texto" style="text;html=1;align=center;verticalAlign=middle;whiteSpace=wrap;rounded=0;fillColor=none;fontColor=light-dark(#000000,#000000);fontSize=12;" parent="sH1HxAaR-ODx4O14QXts-55" vertex="1">
          <mxGeometry x="27" y="9.870000000000005" width="36.5" height="9.25" as="geometry" />
        </mxCell>
        <mxCell id="sH1HxAaR-ODx4O14QXts-58" value="" style="group" parent="1" vertex="1" connectable="0">
          <mxGeometry x="-690" y="-1028" width="90.5" height="29" as="geometry" />
        </mxCell>
        <mxCell id="sH1HxAaR-ODx4O14QXts-59" value="" style="strokeWidth=2;html=1;shape=mxgraph.flowchart.terminator;whiteSpace=wrap;strokeColor=light-dark(#000000,#C0B652);gradientColor=light-dark(#000000,#CECE08);fillColor=light-dark(#FFFFFF,#FFFFFF);gradientDirection=radial;" parent="sH1HxAaR-ODx4O14QXts-58" vertex="1">
          <mxGeometry width="90.5" height="29" as="geometry" />
        </mxCell>
        <mxCell id="sH1HxAaR-ODx4O14QXts-60" value="DataLimite" style="text;html=1;align=center;verticalAlign=middle;whiteSpace=wrap;rounded=0;fillColor=none;fontColor=light-dark(#000000,#000000);fontSize=12;" parent="sH1HxAaR-ODx4O14QXts-58" vertex="1">
          <mxGeometry x="27" y="9.870000000000005" width="36.5" height="9.25" as="geometry" />
        </mxCell>
        <mxCell id="sH1HxAaR-ODx4O14QXts-65" value="" style="endArrow=none;html=1;rounded=0;fontSize=12;startSize=8;endSize=8;curved=1;strokeColor=light-dark(#000000,#000000);strokeWidth=2;exitX=0.5;exitY=0;exitDx=0;exitDy=0;entryX=0.75;entryY=1;entryDx=0;entryDy=0;" parent="1" source="2LAl9BLSWvAE8NERQg5I-75" target="sH1HxAaR-ODx4O14QXts-64" edge="1">
          <mxGeometry width="50" height="50" relative="1" as="geometry">
            <mxPoint x="22" y="-1383" as="sourcePoint" />
            <mxPoint x="-119" y="-1571" as="targetPoint" />
          </mxGeometry>
        </mxCell>
        <mxCell id="sH1HxAaR-ODx4O14QXts-64" value="(0,N)" style="text;html=1;align=center;verticalAlign=middle;whiteSpace=wrap;rounded=0;fillColor=none;fontColor=light-dark(#000000,#000000);fontSize=15;" parent="1" vertex="1">
          <mxGeometry x="-129.25" y="-1619" width="39" height="30" as="geometry" />
        </mxCell>
        <mxCell id="sH1HxAaR-ODx4O14QXts-67" value="" style="endArrow=none;html=1;rounded=0;fontSize=12;startSize=8;endSize=8;curved=1;entryX=0.5;entryY=1;entryDx=0;entryDy=0;strokeColor=light-dark(#000000,#000000);strokeWidth=2;exitX=0.5;exitY=0;exitDx=0;exitDy=0;" parent="1" source="2LAl9BLSWvAE8NERQg5I-26" target="sH1HxAaR-ODx4O14QXts-66" edge="1">
          <mxGeometry width="50" height="50" relative="1" as="geometry">
            <mxPoint x="23" y="-1112" as="sourcePoint" />
            <mxPoint x="22" y="-1295" as="targetPoint" />
          </mxGeometry>
        </mxCell>
        <mxCell id="sH1HxAaR-ODx4O14QXts-66" value="(1,N)" style="text;html=1;align=center;verticalAlign=middle;whiteSpace=wrap;rounded=0;fillColor=none;fontColor=light-dark(#000000,#000000);fontSize=15;" parent="1" vertex="1">
          <mxGeometry x="3.5" y="-1170" width="39" height="30" as="geometry" />
        </mxCell>
        <mxCell id="sH1HxAaR-ODx4O14QXts-69" value="" style="endArrow=none;html=1;rounded=0;fontSize=12;startSize=8;endSize=8;curved=1;exitX=1;exitY=0.5;exitDx=0;exitDy=0;entryX=0;entryY=1;entryDx=0;entryDy=0;strokeColor=light-dark(#000000,#000000);strokeWidth=2;" parent="1" source="2LAl9BLSWvAE8NERQg5I-90" target="sH1HxAaR-ODx4O14QXts-68" edge="1">
          <mxGeometry width="50" height="50" relative="1" as="geometry">
            <mxPoint x="-341" y="-862" as="sourcePoint" />
            <mxPoint x="-37" y="-1082" as="targetPoint" />
          </mxGeometry>
        </mxCell>
        <mxCell id="sH1HxAaR-ODx4O14QXts-68" value="(1,1)" style="text;html=1;align=center;verticalAlign=middle;whiteSpace=wrap;rounded=0;fillColor=none;fontColor=light-dark(#000000,#000000);fontSize=15;" parent="1" vertex="1">
          <mxGeometry x="-100" y="-1064" width="41" height="30" as="geometry" />
        </mxCell>
        <mxCell id="sH1HxAaR-ODx4O14QXts-70" style="edgeStyle=none;curved=1;rounded=0;orthogonalLoop=1;jettySize=auto;html=1;entryX=1.013;entryY=0.445;entryDx=0;entryDy=0;entryPerimeter=0;fontSize=12;startSize=8;endSize=8;" parent="1" source="sH1HxAaR-ODx4O14QXts-68" target="sH1HxAaR-ODx4O14QXts-68" edge="1">
          <mxGeometry relative="1" as="geometry" />
        </mxCell>
        <mxCell id="sH1HxAaR-ODx4O14QXts-72" value="" style="endArrow=none;html=1;rounded=0;fontSize=12;startSize=8;endSize=8;curved=1;exitX=1;exitY=0.5;exitDx=0;exitDy=0;strokeColor=light-dark(#000000,#000000);strokeWidth=2;entryX=0;entryY=0.5;entryDx=0;entryDy=0;" parent="1" source="2LAl9BLSWvAE8NERQg5I-23" target="sH1HxAaR-ODx4O14QXts-71" edge="1">
          <mxGeometry width="50" height="50" relative="1" as="geometry">
            <mxPoint x="-1018" y="-912" as="sourcePoint" />
            <mxPoint x="-473" y="-862" as="targetPoint" />
          </mxGeometry>
        </mxCell>
        <mxCell id="sH1HxAaR-ODx4O14QXts-71" value="(0,N)" style="text;html=1;align=center;verticalAlign=middle;whiteSpace=wrap;rounded=0;fillColor=none;fontColor=light-dark(#000000,#000000);fontSize=15;" parent="1" vertex="1">
          <mxGeometry x="-1008" y="-927" width="41" height="30" as="geometry" />
        </mxCell>
        <mxCell id="sH1HxAaR-ODx4O14QXts-74" value="" style="endArrow=none;html=1;rounded=0;fontSize=12;startSize=8;endSize=8;curved=1;entryX=0;entryY=0.5;entryDx=0;entryDy=0;strokeColor=light-dark(#000000,#000000);strokeWidth=2;exitX=1;exitY=0.5;exitDx=0;exitDy=0;" parent="1" source="2LAl9BLSWvAE8NERQg5I-93" target="sH1HxAaR-ODx4O14QXts-73" edge="1">
          <mxGeometry width="50" height="50" relative="1" as="geometry">
            <mxPoint x="-708" y="-1804" as="sourcePoint" />
            <mxPoint x="-209" y="-1601" as="targetPoint" />
          </mxGeometry>
        </mxCell>
        <mxCell id="sH1HxAaR-ODx4O14QXts-73" value="(1,1)" style="text;html=1;align=center;verticalAlign=middle;whiteSpace=wrap;rounded=0;fillColor=none;fontColor=light-dark(#000000,#000000);fontSize=15;" parent="1" vertex="1">
          <mxGeometry x="-309" y="-1711" width="36" height="21" as="geometry" />
        </mxCell>
        <mxCell id="sH1HxAaR-ODx4O14QXts-76" value="" style="endArrow=none;html=1;rounded=0;fontSize=12;startSize=8;endSize=8;curved=1;entryX=0.5;entryY=1;entryDx=0;entryDy=0;strokeColor=light-dark(#000000,#000000);strokeWidth=2;exitX=0.5;exitY=0;exitDx=0;exitDy=0;" parent="1" source="2LAl9BLSWvAE8NERQg5I-23" target="sH1HxAaR-ODx4O14QXts-75" edge="1">
          <mxGeometry width="50" height="50" relative="1" as="geometry">
            <mxPoint x="-1078" y="-942" as="sourcePoint" />
            <mxPoint x="-840" y="-1804" as="targetPoint" />
          </mxGeometry>
        </mxCell>
        <mxCell id="sH1HxAaR-ODx4O14QXts-75" value="(0,N)" style="text;html=1;align=center;verticalAlign=middle;whiteSpace=wrap;rounded=0;fillColor=none;fontColor=light-dark(#000000,#000000);fontSize=15;" parent="1" vertex="1">
          <mxGeometry x="-1098.75" y="-1010" width="41" height="30" as="geometry" />
        </mxCell>
        <mxCell id="sH1HxAaR-ODx4O14QXts-78" value="" style="endArrow=none;html=1;rounded=0;fontSize=12;startSize=8;endSize=8;curved=1;entryX=0;entryY=1;entryDx=0;entryDy=0;strokeColor=light-dark(#000000,#000000);strokeWidth=2;exitX=0.5;exitY=0;exitDx=0;exitDy=0;" parent="1" source="2LAl9BLSWvAE8NERQg5I-23" target="sH1HxAaR-ODx4O14QXts-77" edge="1">
          <mxGeometry width="50" height="50" relative="1" as="geometry">
            <mxPoint x="-1078" y="-942" as="sourcePoint" />
            <mxPoint x="-865" y="-1202" as="targetPoint" />
          </mxGeometry>
        </mxCell>
        <mxCell id="sH1HxAaR-ODx4O14QXts-77" value="(0,N)" style="text;html=1;align=center;verticalAlign=middle;whiteSpace=wrap;rounded=0;fillColor=none;fontColor=light-dark(#000000,#000000);fontSize=15;" parent="1" vertex="1">
          <mxGeometry x="-1049" y="-1005" width="41" height="30" as="geometry" />
        </mxCell>
        <mxCell id="sH1HxAaR-ODx4O14QXts-80" value="" style="endArrow=none;html=1;rounded=0;fontSize=12;startSize=8;endSize=8;curved=1;exitX=0.5;exitY=1;exitDx=0;exitDy=0;strokeColor=light-dark(#000000,#000000);strokeWidth=2;entryX=0;entryY=0.25;entryDx=0;entryDy=0;" parent="1" source="2LAl9BLSWvAE8NERQg5I-23" target="sH1HxAaR-ODx4O14QXts-79" edge="1">
          <mxGeometry width="50" height="50" relative="1" as="geometry">
            <mxPoint x="-1078" y="-882" as="sourcePoint" />
            <mxPoint x="-625" y="-738" as="targetPoint" />
          </mxGeometry>
        </mxCell>
        <mxCell id="sH1HxAaR-ODx4O14QXts-79" value="(0,N)" style="text;html=1;align=center;verticalAlign=middle;whiteSpace=wrap;rounded=0;fillColor=none;fontColor=light-dark(#000000,#000000);fontSize=15;" parent="1" vertex="1">
          <mxGeometry x="-1027" y="-874" width="41" height="30" as="geometry" />
        </mxCell>
        <mxCell id="sH1HxAaR-ODx4O14QXts-82" value="" style="endArrow=none;html=1;rounded=0;fontSize=12;startSize=8;endSize=8;curved=1;exitX=0;exitY=0.5;exitDx=0;exitDy=0;strokeColor=light-dark(#000000,#000000);strokeWidth=2;entryX=1;entryY=0.5;entryDx=0;entryDy=0;" parent="1" source="2LAl9BLSWvAE8NERQg5I-30" target="sH1HxAaR-ODx4O14QXts-81" edge="1">
          <mxGeometry width="50" height="50" relative="1" as="geometry">
            <mxPoint x="-37" y="-780" as="sourcePoint" />
            <mxPoint x="-493" y="-738" as="targetPoint" />
          </mxGeometry>
        </mxCell>
        <mxCell id="sH1HxAaR-ODx4O14QXts-81" value="(1,1)" style="text;html=1;align=center;verticalAlign=middle;whiteSpace=wrap;rounded=0;fillColor=none;fontColor=light-dark(#000000,#000000);fontSize=15;" parent="1" vertex="1">
          <mxGeometry x="-96" y="-794.13" width="41" height="30" as="geometry" />
        </mxCell>
        <mxCell id="sH1HxAaR-ODx4O14QXts-84" value="" style="endArrow=none;html=1;rounded=0;fontSize=12;startSize=8;endSize=8;curved=1;entryX=0;entryY=0.5;entryDx=0;entryDy=0;strokeColor=light-dark(#000000,#000000);strokeWidth=2;exitX=1;exitY=0.5;exitDx=0;exitDy=0;" parent="1" source="2LAl9BLSWvAE8NERQg5I-99" target="sH1HxAaR-ODx4O14QXts-83" edge="1">
          <mxGeometry width="50" height="50" relative="1" as="geometry">
            <mxPoint x="-865" y="-1290" as="sourcePoint" />
            <mxPoint x="-863" y="-1575" as="targetPoint" />
          </mxGeometry>
        </mxCell>
        <mxCell id="sH1HxAaR-ODx4O14QXts-83" value="(1,1)" style="text;html=1;align=center;verticalAlign=middle;whiteSpace=wrap;rounded=0;fillColor=none;fontColor=light-dark(#000000,#000000);fontSize=15;" parent="1" vertex="1">
          <mxGeometry x="-931" y="-1548" width="41" height="30" as="geometry" />
        </mxCell>
        <mxCell id="sH1HxAaR-ODx4O14QXts-90" value="" style="endArrow=none;html=1;rounded=0;fontSize=12;startSize=8;endSize=8;curved=1;entryX=0.5;entryY=1;entryDx=0;entryDy=0;strokeColor=light-dark(#000000,#000000);strokeWidth=2;exitX=0;exitY=0.5;exitDx=0;exitDy=0;" parent="1" source="2LAl9BLSWvAE8NERQg5I-116" target="sH1HxAaR-ODx4O14QXts-89" edge="1">
          <mxGeometry width="50" height="50" relative="1" as="geometry">
            <mxPoint x="-763" y="-1093" as="sourcePoint" />
            <mxPoint x="-803" y="-1545" as="targetPoint" />
          </mxGeometry>
        </mxCell>
        <mxCell id="sH1HxAaR-ODx4O14QXts-89" value="(0,N)" style="text;html=1;align=center;verticalAlign=middle;whiteSpace=wrap;rounded=0;fillColor=none;fontColor=light-dark(#000000,#000000);fontSize=15;" parent="1" vertex="1">
          <mxGeometry x="-826" y="-1508" width="41" height="30" as="geometry" />
        </mxCell>
        <mxCell id="sH1HxAaR-ODx4O14QXts-92" value="" style="endArrow=none;html=1;rounded=0;fontSize=12;startSize=8;endSize=8;curved=1;entryX=1;entryY=0.5;entryDx=0;entryDy=0;strokeColor=light-dark(#000000,#000000);strokeWidth=2;exitX=0;exitY=0.5;exitDx=0;exitDy=0;" parent="1" source="2LAl9BLSWvAE8NERQg5I-26" target="sH1HxAaR-ODx4O14QXts-91" edge="1">
          <mxGeometry width="50" height="50" relative="1" as="geometry">
            <mxPoint x="-37" y="-1082" as="sourcePoint" />
            <mxPoint x="-631" y="-1093" as="targetPoint" />
          </mxGeometry>
        </mxCell>
        <mxCell id="sH1HxAaR-ODx4O14QXts-91" value="(0,N)" style="text;html=1;align=center;verticalAlign=middle;whiteSpace=wrap;rounded=0;fillColor=none;fontColor=light-dark(#000000,#000000);fontSize=15;" parent="1" vertex="1">
          <mxGeometry x="-113" y="-1099" width="41" height="30" as="geometry" />
        </mxCell>
        <mxCell id="sH1HxAaR-ODx4O14QXts-94" value="" style="endArrow=none;html=1;rounded=0;fontSize=12;startSize=8;endSize=8;curved=1;entryX=1;entryY=0.5;entryDx=0;entryDy=0;strokeColor=light-dark(#000000,#000000);strokeWidth=2;exitX=0;exitY=0.5;exitDx=0;exitDy=0;" parent="1" source="2LAl9BLSWvAE8NERQg5I-20" target="sH1HxAaR-ODx4O14QXts-93" edge="1">
          <mxGeometry width="50" height="50" relative="1" as="geometry">
            <mxPoint x="-213.25" y="-1661" as="sourcePoint" />
            <mxPoint x="-385.25" y="-1692" as="targetPoint" />
          </mxGeometry>
        </mxCell>
        <mxCell id="sH1HxAaR-ODx4O14QXts-93" value="(0,N)" style="text;html=1;align=center;verticalAlign=middle;whiteSpace=wrap;rounded=0;fillColor=none;fontColor=light-dark(#000000,#000000);fontSize=15;" parent="1" vertex="1">
          <mxGeometry x="-273" y="-1726" width="39" height="23" as="geometry" />
        </mxCell>
        <mxCell id="sH1HxAaR-ODx4O14QXts-99" value="" style="endArrow=none;html=1;rounded=0;fontSize=12;startSize=8;endSize=8;curved=1;entryX=1;entryY=0.5;entryDx=0;entryDy=0;strokeColor=light-dark(#000000,#000000);strokeWidth=2;exitX=0;exitY=0.5;exitDx=0;exitDy=0;" parent="1" source="ntMzKID20fwuhIGmep4X-5" target="sH1HxAaR-ODx4O14QXts-107" edge="1">
          <mxGeometry width="50" height="50" relative="1" as="geometry">
            <mxPoint x="-527" y="-1632" as="sourcePoint" />
            <mxPoint x="-743" y="-1575" as="targetPoint" />
          </mxGeometry>
        </mxCell>
        <mxCell id="sH1HxAaR-ODx4O14QXts-98" value="(0,N)" style="text;html=1;align=center;verticalAlign=middle;whiteSpace=wrap;rounded=0;fillColor=none;fontColor=light-dark(#000000,#000000);fontSize=15;" parent="1" vertex="1">
          <mxGeometry x="-726" y="-1584" width="39" height="23" as="geometry" />
        </mxCell>
        <mxCell id="sH1HxAaR-ODx4O14QXts-103" value="" style="endArrow=none;html=1;rounded=0;fontSize=12;startSize=8;endSize=8;curved=1;entryX=0.25;entryY=0;entryDx=0;entryDy=0;strokeColor=light-dark(#000000,#000000);strokeWidth=2;exitX=1;exitY=0.5;exitDx=0;exitDy=0;" parent="1" source="ntMzKID20fwuhIGmep4X-20" target="sH1HxAaR-ODx4O14QXts-101" edge="1">
          <mxGeometry width="50" height="50" relative="1" as="geometry">
            <mxPoint x="25" y="-1806" as="sourcePoint" />
            <mxPoint x="216" y="-1624" as="targetPoint" />
          </mxGeometry>
        </mxCell>
        <mxCell id="sH1HxAaR-ODx4O14QXts-101" value="(0,N)" style="text;html=1;align=center;verticalAlign=middle;whiteSpace=wrap;rounded=0;fillColor=none;fontColor=light-dark(#000000,#000000);fontSize=15;" parent="1" vertex="1">
          <mxGeometry x="165" y="-1670" width="39" height="30" as="geometry" />
        </mxCell>
        <mxCell id="sH1HxAaR-ODx4O14QXts-106" value="" style="endArrow=none;html=1;rounded=0;fontSize=12;startSize=8;endSize=8;curved=1;entryX=0.25;entryY=1;entryDx=0;entryDy=0;strokeColor=light-dark(#000000,#000000);strokeWidth=2;exitX=0;exitY=0.5;exitDx=0;exitDy=0;" parent="1" source="ntMzKID20fwuhIGmep4X-20" target="sH1HxAaR-ODx4O14QXts-105" edge="1">
          <mxGeometry width="50" height="50" relative="1" as="geometry">
            <mxPoint x="-46.000000000000455" y="-2099" as="sourcePoint" />
            <mxPoint x="-135.5" y="-2004.5" as="targetPoint" />
          </mxGeometry>
        </mxCell>
        <mxCell id="sH1HxAaR-ODx4O14QXts-105" value="(0,N)" style="text;html=1;align=center;verticalAlign=middle;whiteSpace=wrap;rounded=0;fillColor=none;fontColor=light-dark(#000000,#000000);fontSize=15;" parent="1" vertex="1">
          <mxGeometry x="-225" y="-2073" width="39" height="30" as="geometry" />
        </mxCell>
        <mxCell id="sH1HxAaR-ODx4O14QXts-107" value="(0,N)" style="text;html=1;align=center;verticalAlign=middle;whiteSpace=wrap;rounded=0;fillColor=none;fontColor=light-dark(#000000,#000000);fontSize=15;" parent="1" vertex="1">
          <mxGeometry x="-734" y="-1617" width="39" height="30" as="geometry" />
        </mxCell>
        <mxCell id="sH1HxAaR-ODx4O14QXts-110" value="" style="endArrow=none;html=1;rounded=0;fontSize=12;startSize=8;endSize=8;curved=1;entryX=1;entryY=1;entryDx=0;entryDy=0;strokeColor=light-dark(#000000,#000000);strokeWidth=2;exitX=0;exitY=0.5;exitDx=0;exitDy=0;" parent="1" source="ntMzKID20fwuhIGmep4X-44" target="sH1HxAaR-ODx4O14QXts-109" edge="1">
          <mxGeometry width="50" height="50" relative="1" as="geometry">
            <mxPoint x="-524" y="-1263" as="sourcePoint" />
            <mxPoint x="-743" y="-1545" as="targetPoint" />
          </mxGeometry>
        </mxCell>
        <mxCell id="sH1HxAaR-ODx4O14QXts-109" value="(0,N)" style="text;html=1;align=center;verticalAlign=middle;whiteSpace=wrap;rounded=0;fillColor=none;fontColor=light-dark(#000000,#000000);fontSize=15;" parent="1" vertex="1">
          <mxGeometry x="-742.5" y="-1515" width="39" height="23" as="geometry" />
        </mxCell>
        <mxCell id="sH1HxAaR-ODx4O14QXts-112" value="" style="endArrow=none;html=1;rounded=0;fontSize=12;startSize=8;endSize=8;curved=1;entryX=1;entryY=1;entryDx=0;entryDy=0;strokeColor=light-dark(#000000,#000000);strokeWidth=2;exitX=0;exitY=0.5;exitDx=0;exitDy=0;" parent="1" source="ntMzKID20fwuhIGmep4X-38" target="sH1HxAaR-ODx4O14QXts-111" edge="1">
          <mxGeometry width="50" height="50" relative="1" as="geometry">
            <mxPoint x="-441" y="-1461" as="sourcePoint" />
            <mxPoint x="-743" y="-1575" as="targetPoint" />
          </mxGeometry>
        </mxCell>
        <mxCell id="sH1HxAaR-ODx4O14QXts-111" value="(0,N)" style="text;html=1;align=center;verticalAlign=middle;whiteSpace=wrap;rounded=0;fillColor=none;fontColor=light-dark(#000000,#000000);fontSize=15;" parent="1" vertex="1">
          <mxGeometry x="-728" y="-1558" width="39" height="23" as="geometry" />
        </mxCell>
        <mxCell id="sH1HxAaR-ODx4O14QXts-114" value="" style="endArrow=none;html=1;rounded=0;fontSize=12;startSize=8;endSize=8;curved=1;entryX=0.75;entryY=0;entryDx=0;entryDy=0;strokeColor=light-dark(#000000,#000000);strokeWidth=2;exitX=0;exitY=0.5;exitDx=0;exitDy=0;" parent="1" source="2LAl9BLSWvAE8NERQg5I-20" target="sH1HxAaR-ODx4O14QXts-113" edge="1">
          <mxGeometry width="50" height="50" relative="1" as="geometry">
            <mxPoint x="-213.25" y="-1661" as="sourcePoint" />
            <mxPoint x="-313.25" y="-1521" as="targetPoint" />
          </mxGeometry>
        </mxCell>
        <mxCell id="sH1HxAaR-ODx4O14QXts-113" value="(0,N)" style="text;html=1;align=center;verticalAlign=middle;whiteSpace=wrap;rounded=0;fillColor=none;fontColor=light-dark(#000000,#000000);fontSize=15;" parent="1" vertex="1">
          <mxGeometry x="-258.25" y="-1638.13" width="39" height="23" as="geometry" />
        </mxCell>
        <mxCell id="sH1HxAaR-ODx4O14QXts-116" value="" style="endArrow=none;html=1;rounded=0;fontSize=12;startSize=8;endSize=8;curved=1;entryX=1;entryY=0.75;entryDx=0;entryDy=0;strokeColor=light-dark(#000000,#000000);strokeWidth=2;exitX=0;exitY=0;exitDx=0;exitDy=0;" parent="1" source="2LAl9BLSWvAE8NERQg5I-26" target="sH1HxAaR-ODx4O14QXts-115" edge="1">
          <mxGeometry width="50" height="50" relative="1" as="geometry">
            <mxPoint x="-37" y="-1112" as="sourcePoint" />
            <mxPoint x="-392" y="-1263" as="targetPoint" />
          </mxGeometry>
        </mxCell>
        <mxCell id="sH1HxAaR-ODx4O14QXts-115" value="(0,N)" style="text;html=1;align=center;verticalAlign=middle;whiteSpace=wrap;rounded=0;fillColor=none;fontColor=light-dark(#000000,#000000);fontSize=15;" parent="1" vertex="1">
          <mxGeometry x="-94" y="-1139" width="39" height="23" as="geometry" />
        </mxCell>
        <mxCell id="sH1HxAaR-ODx4O14QXts-118" value="" style="endArrow=none;html=1;rounded=0;fontSize=12;startSize=8;endSize=8;curved=1;entryX=0.5;entryY=1;entryDx=0;entryDy=0;strokeColor=light-dark(#000000,#000000);strokeWidth=2;exitX=0.5;exitY=0;exitDx=0;exitDy=0;" parent="1" source="2LAl9BLSWvAE8NERQg5I-50" target="sH1HxAaR-ODx4O14QXts-117" edge="1">
          <mxGeometry width="50" height="50" relative="1" as="geometry">
            <mxPoint x="-149" y="-1383" as="sourcePoint" />
            <mxPoint x="-149" y="-1571" as="targetPoint" />
          </mxGeometry>
        </mxCell>
        <mxCell id="sH1HxAaR-ODx4O14QXts-117" value="(0,N)" style="text;html=1;align=center;verticalAlign=middle;whiteSpace=wrap;rounded=0;fillColor=none;fontColor=light-dark(#000000,#000000);fontSize=15;" parent="1" vertex="1">
          <mxGeometry x="-172.75" y="-1620" width="39" height="30" as="geometry" />
        </mxCell>
        <mxCell id="sH1HxAaR-ODx4O14QXts-120" value="" style="endArrow=none;html=1;rounded=0;fontSize=12;startSize=8;endSize=8;curved=1;entryX=0.75;entryY=1;entryDx=0;entryDy=0;strokeColor=light-dark(#000000,#000000);strokeWidth=2;exitX=0.5;exitY=0;exitDx=0;exitDy=0;" parent="1" source="2LAl9BLSWvAE8NERQg5I-26" target="sH1HxAaR-ODx4O14QXts-119" edge="1">
          <mxGeometry width="50" height="50" relative="1" as="geometry">
            <mxPoint x="23" y="-1112" as="sourcePoint" />
            <mxPoint x="-149" y="-1295" as="targetPoint" />
          </mxGeometry>
        </mxCell>
        <mxCell id="sH1HxAaR-ODx4O14QXts-119" value="(1,1)" style="text;html=1;align=center;verticalAlign=middle;whiteSpace=wrap;rounded=0;fillColor=none;fontColor=light-dark(#000000,#000000);fontSize=15;" parent="1" vertex="1">
          <mxGeometry x="-37" y="-1170" width="39" height="30" as="geometry" />
        </mxCell>
        <mxCell id="sH1HxAaR-ODx4O14QXts-122" value="" style="endArrow=none;html=1;rounded=0;fontSize=12;startSize=8;endSize=8;curved=1;entryX=0.5;entryY=1;entryDx=0;entryDy=0;strokeColor=light-dark(#000000,#000000);strokeWidth=2;exitX=0.5;exitY=0;exitDx=0;exitDy=0;" parent="1" source="2LAl9BLSWvAE8NERQg5I-154" target="sH1HxAaR-ODx4O14QXts-121" edge="1">
          <mxGeometry width="50" height="50" relative="1" as="geometry">
            <mxPoint x="336" y="-982" as="sourcePoint" />
            <mxPoint x="338" y="-1090" as="targetPoint" />
          </mxGeometry>
        </mxCell>
        <mxCell id="sH1HxAaR-ODx4O14QXts-121" value="(0,N)" style="text;html=1;align=center;verticalAlign=middle;whiteSpace=wrap;rounded=0;fillColor=none;fontColor=light-dark(#000000,#000000);fontSize=15;" parent="1" vertex="1">
          <mxGeometry x="318.5" y="-1082" width="39" height="30" as="geometry" />
        </mxCell>
        <mxCell id="sH1HxAaR-ODx4O14QXts-124" value="" style="endArrow=none;html=1;rounded=0;fontSize=12;startSize=8;endSize=8;curved=1;entryX=0.003;entryY=0.795;entryDx=0;entryDy=0;strokeColor=light-dark(#000000,#000000);strokeWidth=2;exitX=1;exitY=0.5;exitDx=0;exitDy=0;entryPerimeter=0;" parent="1" source="2LAl9BLSWvAE8NERQg5I-30" target="sH1HxAaR-ODx4O14QXts-123" edge="1">
          <mxGeometry width="50" height="50" relative="1" as="geometry">
            <mxPoint x="83" y="-780" as="sourcePoint" />
            <mxPoint x="336" y="-894" as="targetPoint" />
          </mxGeometry>
        </mxCell>
        <mxCell id="sH1HxAaR-ODx4O14QXts-123" value="(1,1)" style="text;html=1;align=center;verticalAlign=middle;whiteSpace=wrap;rounded=0;fillColor=none;fontColor=light-dark(#000000,#000000);fontSize=15;" parent="1" vertex="1">
          <mxGeometry x="98" y="-810" width="39" height="30" as="geometry" />
        </mxCell>
        <mxCell id="sH1HxAaR-ODx4O14QXts-126" value="" style="endArrow=none;html=1;rounded=0;fontSize=12;startSize=8;endSize=8;curved=1;strokeColor=light-dark(#000000,#000000);strokeWidth=2;exitX=0.5;exitY=0;exitDx=0;exitDy=0;entryX=1;entryY=1;entryDx=0;entryDy=0;" parent="1" source="2LAl9BLSWvAE8NERQg5I-81" target="sH1HxAaR-ODx4O14QXts-125" edge="1">
          <mxGeometry width="50" height="50" relative="1" as="geometry">
            <mxPoint x="336" y="-1379" as="sourcePoint" />
            <mxPoint x="-89" y="-1571" as="targetPoint" />
          </mxGeometry>
        </mxCell>
        <mxCell id="sH1HxAaR-ODx4O14QXts-125" value="(1,1)" style="text;html=1;align=center;verticalAlign=middle;whiteSpace=wrap;rounded=0;fillColor=none;fontColor=light-dark(#000000,#000000);fontSize=15;" parent="1" vertex="1">
          <mxGeometry x="-64.75" y="-1626" width="39" height="30" as="geometry" />
        </mxCell>
        <mxCell id="sH1HxAaR-ODx4O14QXts-128" value="" style="endArrow=none;html=1;rounded=0;fontSize=12;startSize=8;endSize=8;curved=1;entryX=0.5;entryY=1;entryDx=0;entryDy=0;strokeColor=light-dark(#000000,#000000);strokeWidth=2;exitX=0.5;exitY=0;exitDx=0;exitDy=0;" parent="1" source="2LAl9BLSWvAE8NERQg5I-86" target="sH1HxAaR-ODx4O14QXts-127" edge="1">
          <mxGeometry width="50" height="50" relative="1" as="geometry">
            <mxPoint x="338" y="-1150" as="sourcePoint" />
            <mxPoint x="336" y="-1291" as="targetPoint" />
          </mxGeometry>
        </mxCell>
        <mxCell id="sH1HxAaR-ODx4O14QXts-127" value="(1,N)" style="text;html=1;align=center;verticalAlign=middle;whiteSpace=wrap;rounded=0;fillColor=none;fontColor=light-dark(#000000,#000000);fontSize=15;" parent="1" vertex="1">
          <mxGeometry x="318.5" y="-1194" width="39" height="30" as="geometry" />
        </mxCell>
        <mxCell id="sH1HxAaR-ODx4O14QXts-131" value="" style="endArrow=none;html=1;rounded=0;fontSize=12;startSize=8;endSize=8;curved=1;exitX=0.5;exitY=0;exitDx=0;exitDy=0;entryX=0.5;entryY=1;entryDx=0;entryDy=0;strokeColor=light-dark(#000000,#000000);strokeWidth=2;" parent="1" source="2LAl9BLSWvAE8NERQg5I-30" target="sH1HxAaR-ODx4O14QXts-129" edge="1">
          <mxGeometry width="50" height="50" relative="1" as="geometry">
            <mxPoint x="23" y="-810" as="sourcePoint" />
            <mxPoint x="23" y="-887" as="targetPoint" />
          </mxGeometry>
        </mxCell>
        <mxCell id="sH1HxAaR-ODx4O14QXts-129" value="(0,N)" style="text;html=1;align=center;verticalAlign=middle;whiteSpace=wrap;rounded=0;fillColor=none;fontColor=light-dark(#000000,#000000);fontSize=15;" parent="1" vertex="1">
          <mxGeometry x="3.75" y="-848.88" width="39" height="30" as="geometry" />
        </mxCell>
        <mxCell id="sH1HxAaR-ODx4O14QXts-134" value="" style="endArrow=none;html=1;rounded=0;fontSize=12;startSize=8;endSize=8;curved=1;exitX=0.5;exitY=0;exitDx=0;exitDy=0;entryX=0.5;entryY=1;entryDx=0;entryDy=0;strokeColor=light-dark(#000000,#000000);strokeWidth=2;" parent="1" source="2LAl9BLSWvAE8NERQg5I-35" target="sH1HxAaR-ODx4O14QXts-133" edge="1">
          <mxGeometry width="50" height="50" relative="1" as="geometry">
            <mxPoint x="23" y="-975" as="sourcePoint" />
            <mxPoint x="23" y="-1052" as="targetPoint" />
          </mxGeometry>
        </mxCell>
        <mxCell id="sH1HxAaR-ODx4O14QXts-133" value="(0,N)" style="text;html=1;align=center;verticalAlign=middle;whiteSpace=wrap;rounded=0;fillColor=none;fontColor=light-dark(#000000,#000000);fontSize=15;" parent="1" vertex="1">
          <mxGeometry x="3.5" y="-1045" width="39" height="30" as="geometry" />
        </mxCell>
        <mxCell id="OivKNc5rGhANCPBnHPAf-3" value="" style="edgeStyle=none;curved=1;rounded=0;orthogonalLoop=1;jettySize=auto;html=1;fontSize=12;startSize=8;endSize=8;" parent="1" target="2LAl9BLSWvAE8NERQg5I-283" edge="1">
          <mxGeometry relative="1" as="geometry">
            <mxPoint x="-354" y="-2158.7105263157896" as="sourcePoint" />
          </mxGeometry>
        </mxCell>
        <mxCell id="ntMzKID20fwuhIGmep4X-3" value="" style="group" parent="1" vertex="1" connectable="0">
          <mxGeometry x="-585.5" y="-1842" width="152" height="141" as="geometry" />
        </mxCell>
        <mxCell id="ntMzKID20fwuhIGmep4X-4" value="" style="group" parent="ntMzKID20fwuhIGmep4X-3" vertex="1" connectable="0">
          <mxGeometry y="30" width="152" height="111" as="geometry" />
        </mxCell>
        <mxCell id="ntMzKID20fwuhIGmep4X-7" value="" style="rounded=0;whiteSpace=wrap;html=1;fillColor=none;strokeColor=light-dark(#000000,#008000);strokeWidth=2;" parent="ntMzKID20fwuhIGmep4X-4" vertex="1">
          <mxGeometry x="-15" y="-31" width="162" height="129" as="geometry" />
        </mxCell>
        <mxCell id="ntMzKID20fwuhIGmep4X-5" value="" style="rhombus;whiteSpace=wrap;html=1;strokeWidth=3;strokeColor=light-dark(#000000,#008000);fillColor=light-dark(#FFFFFF,#FFFFFF);gradientColor=light-dark(#000000,#58FF4E);gradientDirection=radial;" parent="ntMzKID20fwuhIGmep4X-4" vertex="1">
          <mxGeometry width="132" height="88" as="geometry" />
        </mxCell>
        <mxCell id="ntMzKID20fwuhIGmep4X-6" value="Enviar mensagens professor para aluno" style="text;html=1;align=center;verticalAlign=middle;whiteSpace=wrap;rounded=0;fillColor=none;fontColor=light-dark(#000000,#000000);fontSize=15;" parent="ntMzKID20fwuhIGmep4X-4" vertex="1">
          <mxGeometry x="16.5" y="29" width="99" height="30" as="geometry" />
        </mxCell>
        <mxCell id="ntMzKID20fwuhIGmep4X-8" value="Mensagens&lt;br&gt;P-&amp;gt;A" style="text;html=1;align=center;verticalAlign=middle;whiteSpace=wrap;rounded=0;fillColor=none;fontColor=light-dark(#000000,#000000);fontSize=15;" parent="ntMzKID20fwuhIGmep4X-3" vertex="1">
          <mxGeometry x="16.5" width="99" height="30" as="geometry" />
        </mxCell>
        <mxCell id="ntMzKID20fwuhIGmep4X-9" value="y" style="group" parent="1" vertex="1" connectable="0">
          <mxGeometry x="-611" y="-1708.13" width="90.5" height="29" as="geometry" />
        </mxCell>
        <mxCell id="ntMzKID20fwuhIGmep4X-10" value="" style="strokeWidth=2;html=1;shape=mxgraph.flowchart.terminator;whiteSpace=wrap;strokeColor=light-dark(#000000,#C0B652);gradientColor=light-dark(#000000,#CECE08);fillColor=light-dark(#FFFFFF,#FFFFFF);gradientDirection=radial;" parent="ntMzKID20fwuhIGmep4X-9" vertex="1">
          <mxGeometry width="90.5" height="29" as="geometry" />
        </mxCell>
        <mxCell id="ntMzKID20fwuhIGmep4X-11" value="Timestamp" style="text;html=1;align=center;verticalAlign=middle;whiteSpace=wrap;rounded=0;fillColor=none;fontColor=light-dark(#000000,#000000);fontSize=12;" parent="ntMzKID20fwuhIGmep4X-9" vertex="1">
          <mxGeometry x="27" y="9.870000000000005" width="36.5" height="9.25" as="geometry" />
        </mxCell>
        <mxCell id="ntMzKID20fwuhIGmep4X-12" value="" style="shape=cross;whiteSpace=wrap;html=1;strokeColor=none;" parent="ntMzKID20fwuhIGmep4X-9" vertex="1">
          <mxGeometry x="70" y="-5.999999999999996" width="13" height="14" as="geometry" />
        </mxCell>
        <mxCell id="ntMzKID20fwuhIGmep4X-18" value="" style="group" parent="1" vertex="1" connectable="0">
          <mxGeometry x="-133" y="-2098" width="160.25" height="167" as="geometry" />
        </mxCell>
        <mxCell id="ntMzKID20fwuhIGmep4X-19" value="" style="group" parent="ntMzKID20fwuhIGmep4X-18" vertex="1" connectable="0">
          <mxGeometry y="30" width="160.25" height="137" as="geometry" />
        </mxCell>
        <mxCell id="ntMzKID20fwuhIGmep4X-22" value="" style="rounded=0;whiteSpace=wrap;html=1;fillColor=none;strokeColor=light-dark(#000000,#008000);strokeWidth=2;" parent="ntMzKID20fwuhIGmep4X-19" vertex="1">
          <mxGeometry x="-15" y="-31" width="162" height="129" as="geometry" />
        </mxCell>
        <mxCell id="ntMzKID20fwuhIGmep4X-20" value="" style="rhombus;whiteSpace=wrap;html=1;strokeWidth=3;strokeColor=light-dark(#000000,#008000);fillColor=light-dark(#FFFFFF,#FFFFFF);gradientColor=light-dark(#000000,#58FF4E);gradientDirection=radial;" parent="ntMzKID20fwuhIGmep4X-19" vertex="1">
          <mxGeometry width="132" height="88" as="geometry" />
        </mxCell>
        <mxCell id="ntMzKID20fwuhIGmep4X-21" value="Enviar avisos gerais" style="text;html=1;align=center;verticalAlign=middle;whiteSpace=wrap;rounded=0;fillColor=none;fontColor=light-dark(#000000,#000000);fontSize=15;" parent="ntMzKID20fwuhIGmep4X-19" vertex="1">
          <mxGeometry x="16.5" y="29" width="99" height="30" as="geometry" />
        </mxCell>
        <mxCell id="U3VD0cvZQd7Q596icUjC-32" value="" style="group" parent="ntMzKID20fwuhIGmep4X-19" vertex="1" connectable="0">
          <mxGeometry x="69.75" y="108" width="90.5" height="29" as="geometry" />
        </mxCell>
        <mxCell id="U3VD0cvZQd7Q596icUjC-33" value="" style="strokeWidth=2;html=1;shape=mxgraph.flowchart.terminator;whiteSpace=wrap;strokeColor=light-dark(#000000,#C0B652);gradientColor=light-dark(#000000,#CECE08);fillColor=light-dark(#FFFFFF,#FFFFFF);gradientDirection=radial;" parent="U3VD0cvZQd7Q596icUjC-32" vertex="1">
          <mxGeometry width="90.5" height="29" as="geometry" />
        </mxCell>
        <mxCell id="U3VD0cvZQd7Q596icUjC-34" value="Texto" style="text;html=1;align=center;verticalAlign=middle;whiteSpace=wrap;rounded=0;fillColor=none;fontColor=light-dark(#000000,#000000);fontSize=12;" parent="U3VD0cvZQd7Q596icUjC-32" vertex="1">
          <mxGeometry x="27" y="9.870000000000005" width="36.5" height="9.25" as="geometry" />
        </mxCell>
        <mxCell id="ntMzKID20fwuhIGmep4X-13" value="y" style="group" parent="ntMzKID20fwuhIGmep4X-19" vertex="1" connectable="0">
          <mxGeometry x="-28.25" y="108" width="90.5" height="29" as="geometry" />
        </mxCell>
        <mxCell id="ntMzKID20fwuhIGmep4X-14" value="" style="strokeWidth=2;html=1;shape=mxgraph.flowchart.terminator;whiteSpace=wrap;strokeColor=light-dark(#000000,#C0B652);gradientColor=light-dark(#000000,#CECE08);fillColor=light-dark(#FFFFFF,#FFFFFF);gradientDirection=radial;" parent="ntMzKID20fwuhIGmep4X-13" vertex="1">
          <mxGeometry width="90.5" height="29" as="geometry" />
        </mxCell>
        <mxCell id="ntMzKID20fwuhIGmep4X-15" value="Timestamp" style="text;html=1;align=center;verticalAlign=middle;whiteSpace=wrap;rounded=0;fillColor=none;fontColor=light-dark(#000000,#000000);fontSize=12;" parent="ntMzKID20fwuhIGmep4X-13" vertex="1">
          <mxGeometry x="27" y="9.870000000000005" width="36.5" height="9.25" as="geometry" />
        </mxCell>
        <mxCell id="ntMzKID20fwuhIGmep4X-16" value="" style="shape=cross;whiteSpace=wrap;html=1;strokeColor=none;" parent="ntMzKID20fwuhIGmep4X-13" vertex="1">
          <mxGeometry x="70" y="-5.999999999999996" width="13" height="14" as="geometry" />
        </mxCell>
        <mxCell id="ntMzKID20fwuhIGmep4X-23" value="Avisos" style="text;html=1;align=center;verticalAlign=middle;whiteSpace=wrap;rounded=0;fillColor=none;fontColor=light-dark(#000000,#000000);fontSize=15;" parent="ntMzKID20fwuhIGmep4X-18" vertex="1">
          <mxGeometry x="16.5" width="99" height="30" as="geometry" />
        </mxCell>
        <mxCell id="ntMzKID20fwuhIGmep4X-27" value="y" style="group" parent="1" vertex="1" connectable="0">
          <mxGeometry x="-347" y="-1399" width="90.5" height="29" as="geometry" />
        </mxCell>
        <mxCell id="ntMzKID20fwuhIGmep4X-28" value="" style="strokeWidth=2;html=1;shape=mxgraph.flowchart.terminator;whiteSpace=wrap;strokeColor=light-dark(#000000,#C0B652);gradientColor=light-dark(#000000,#CECE08);fillColor=light-dark(#FFFFFF,#FFFFFF);gradientDirection=radial;" parent="ntMzKID20fwuhIGmep4X-27" vertex="1">
          <mxGeometry width="90.5" height="29" as="geometry" />
        </mxCell>
        <mxCell id="ntMzKID20fwuhIGmep4X-29" value="&lt;u&gt;PeríodoLetivo&lt;/u&gt;" style="text;html=1;align=center;verticalAlign=middle;whiteSpace=wrap;rounded=0;fillColor=none;fontColor=light-dark(#000000,#000000);fontSize=12;" parent="ntMzKID20fwuhIGmep4X-27" vertex="1">
          <mxGeometry x="27" y="9.870000000000005" width="36.5" height="9.25" as="geometry" />
        </mxCell>
        <mxCell id="ntMzKID20fwuhIGmep4X-30" value="" style="shape=cross;whiteSpace=wrap;html=1;strokeColor=none;" parent="ntMzKID20fwuhIGmep4X-27" vertex="1">
          <mxGeometry x="70" y="-5.999999999999996" width="13" height="14" as="geometry" />
        </mxCell>
        <mxCell id="ntMzKID20fwuhIGmep4X-31" value="y" style="group" parent="1" vertex="1" connectable="0">
          <mxGeometry x="-411" y="-1242" width="90.5" height="29" as="geometry" />
        </mxCell>
        <mxCell id="ntMzKID20fwuhIGmep4X-32" value="" style="strokeWidth=2;html=1;shape=mxgraph.flowchart.terminator;whiteSpace=wrap;strokeColor=light-dark(#000000,#C0B652);gradientColor=light-dark(#000000,#CECE08);fillColor=light-dark(#FFFFFF,#FFFFFF);gradientDirection=radial;" parent="ntMzKID20fwuhIGmep4X-31" vertex="1">
          <mxGeometry width="90.5" height="29" as="geometry" />
        </mxCell>
        <mxCell id="ntMzKID20fwuhIGmep4X-33" value="&lt;u&gt;PeríodoLetivo&lt;/u&gt;" style="text;html=1;align=center;verticalAlign=middle;whiteSpace=wrap;rounded=0;fillColor=none;fontColor=light-dark(#000000,#000000);fontSize=12;" parent="ntMzKID20fwuhIGmep4X-31" vertex="1">
          <mxGeometry x="27" y="9.870000000000005" width="36.5" height="9.25" as="geometry" />
        </mxCell>
        <mxCell id="ntMzKID20fwuhIGmep4X-34" value="" style="shape=cross;whiteSpace=wrap;html=1;strokeColor=none;" parent="ntMzKID20fwuhIGmep4X-31" vertex="1">
          <mxGeometry x="70" y="-5.999999999999996" width="13" height="14" as="geometry" />
        </mxCell>
        <mxCell id="ntMzKID20fwuhIGmep4X-35" value="" style="group" parent="1" vertex="1" connectable="0">
          <mxGeometry x="-391" y="-1536" width="152" height="141" as="geometry" />
        </mxCell>
        <mxCell id="ntMzKID20fwuhIGmep4X-36" value="" style="group" parent="ntMzKID20fwuhIGmep4X-35" vertex="1" connectable="0">
          <mxGeometry y="30" width="152" height="111" as="geometry" />
        </mxCell>
        <mxCell id="ntMzKID20fwuhIGmep4X-37" value="" style="rounded=0;whiteSpace=wrap;html=1;fillColor=none;strokeColor=light-dark(#000000,#008000);strokeWidth=2;" parent="ntMzKID20fwuhIGmep4X-36" vertex="1">
          <mxGeometry x="-15" y="-31" width="162" height="129" as="geometry" />
        </mxCell>
        <mxCell id="ntMzKID20fwuhIGmep4X-38" value="" style="rhombus;whiteSpace=wrap;html=1;strokeWidth=3;strokeColor=light-dark(#000000,#008000);fillColor=light-dark(#FFFFFF,#FFFFFF);gradientColor=light-dark(#000000,#58FF4E);gradientDirection=radial;" parent="ntMzKID20fwuhIGmep4X-36" vertex="1">
          <mxGeometry width="132" height="88" as="geometry" />
        </mxCell>
        <mxCell id="ntMzKID20fwuhIGmep4X-39" value="Avaliar professor" style="text;html=1;align=center;verticalAlign=middle;whiteSpace=wrap;rounded=0;fillColor=none;fontColor=light-dark(#000000,#000000);fontSize=15;" parent="ntMzKID20fwuhIGmep4X-36" vertex="1">
          <mxGeometry x="16.5" y="29" width="99" height="30" as="geometry" />
        </mxCell>
        <mxCell id="ntMzKID20fwuhIGmep4X-40" value="NotaProfessor" style="text;html=1;align=center;verticalAlign=middle;whiteSpace=wrap;rounded=0;fillColor=none;fontColor=light-dark(#000000,#000000);fontSize=15;" parent="ntMzKID20fwuhIGmep4X-35" vertex="1">
          <mxGeometry x="16.5" width="99" height="30" as="geometry" />
        </mxCell>
        <mxCell id="ntMzKID20fwuhIGmep4X-41" value="" style="group" parent="1" vertex="1" connectable="0">
          <mxGeometry x="-560" y="-1379" width="152" height="141" as="geometry" />
        </mxCell>
        <mxCell id="ntMzKID20fwuhIGmep4X-42" value="" style="group" parent="ntMzKID20fwuhIGmep4X-41" vertex="1" connectable="0">
          <mxGeometry y="30" width="152" height="111" as="geometry" />
        </mxCell>
        <mxCell id="ntMzKID20fwuhIGmep4X-43" value="" style="rounded=0;whiteSpace=wrap;html=1;fillColor=none;strokeColor=light-dark(#000000,#008000);strokeWidth=2;" parent="ntMzKID20fwuhIGmep4X-42" vertex="1">
          <mxGeometry x="-15" y="-31" width="162" height="129" as="geometry" />
        </mxCell>
        <mxCell id="ntMzKID20fwuhIGmep4X-44" value="" style="rhombus;whiteSpace=wrap;html=1;strokeWidth=3;strokeColor=light-dark(#000000,#008000);fillColor=light-dark(#FFFFFF,#FFFFFF);gradientColor=light-dark(#000000,#58FF4E);gradientDirection=radial;" parent="ntMzKID20fwuhIGmep4X-42" vertex="1">
          <mxGeometry width="132" height="88" as="geometry" />
        </mxCell>
        <mxCell id="ntMzKID20fwuhIGmep4X-45" value="Avaliar disciplina" style="text;html=1;align=center;verticalAlign=middle;whiteSpace=wrap;rounded=0;fillColor=none;fontColor=light-dark(#000000,#000000);fontSize=15;" parent="ntMzKID20fwuhIGmep4X-42" vertex="1">
          <mxGeometry x="16.5" y="29" width="99" height="30" as="geometry" />
        </mxCell>
        <mxCell id="ntMzKID20fwuhIGmep4X-46" value="NotaDisciplina" style="text;html=1;align=center;verticalAlign=middle;whiteSpace=wrap;rounded=0;fillColor=none;fontColor=light-dark(#000000,#000000);fontSize=15;" parent="ntMzKID20fwuhIGmep4X-41" vertex="1">
          <mxGeometry x="16.5" width="99" height="30" as="geometry" />
        </mxCell>
        <mxCell id="DlTOx3frjz-x5bnHoz6K-1" value="" style="group" parent="1" vertex="1" connectable="0">
          <mxGeometry x="-515" y="-1546" width="90.5" height="29" as="geometry" />
        </mxCell>
        <mxCell id="DlTOx3frjz-x5bnHoz6K-2" value="" style="strokeWidth=2;html=1;shape=mxgraph.flowchart.terminator;whiteSpace=wrap;strokeColor=light-dark(#000000,#C0B652);gradientColor=light-dark(#000000,#CECE08);fillColor=light-dark(#FFFFFF,#FFFFFF);gradientDirection=radial;" parent="DlTOx3frjz-x5bnHoz6K-1" vertex="1">
          <mxGeometry width="90.5" height="29" as="geometry" />
        </mxCell>
        <mxCell id="DlTOx3frjz-x5bnHoz6K-3" value="Texto" style="text;html=1;align=center;verticalAlign=middle;whiteSpace=wrap;rounded=0;fillColor=none;fontColor=light-dark(#000000,#000000);fontSize=12;" parent="DlTOx3frjz-x5bnHoz6K-1" vertex="1">
          <mxGeometry x="27" y="9.870000000000005" width="36.5" height="9.25" as="geometry" />
        </mxCell>
        <mxCell id="DlTOx3frjz-x5bnHoz6K-4" value="" style="group" parent="1" vertex="1" connectable="0">
          <mxGeometry x="-583.5" y="-1681" width="152" height="141" as="geometry" />
        </mxCell>
        <mxCell id="DlTOx3frjz-x5bnHoz6K-5" value="" style="group" parent="DlTOx3frjz-x5bnHoz6K-4" vertex="1" connectable="0">
          <mxGeometry y="30" width="152" height="111" as="geometry" />
        </mxCell>
        <mxCell id="DlTOx3frjz-x5bnHoz6K-6" value="" style="rounded=0;whiteSpace=wrap;html=1;fillColor=none;strokeColor=light-dark(#000000,#008000);strokeWidth=2;" parent="DlTOx3frjz-x5bnHoz6K-5" vertex="1">
          <mxGeometry x="-15" y="-31" width="162" height="129" as="geometry" />
        </mxCell>
        <mxCell id="DlTOx3frjz-x5bnHoz6K-7" value="" style="rhombus;whiteSpace=wrap;html=1;strokeWidth=3;strokeColor=light-dark(#000000,#008000);fillColor=light-dark(#FFFFFF,#FFFFFF);gradientColor=light-dark(#000000,#58FF4E);gradientDirection=radial;" parent="DlTOx3frjz-x5bnHoz6K-5" vertex="1">
          <mxGeometry width="132" height="88" as="geometry" />
        </mxCell>
        <mxCell id="DlTOx3frjz-x5bnHoz6K-8" value="Enviar mensagens aluno para professor" style="text;html=1;align=center;verticalAlign=middle;whiteSpace=wrap;rounded=0;fillColor=none;fontColor=light-dark(#000000,#000000);fontSize=15;" parent="DlTOx3frjz-x5bnHoz6K-5" vertex="1">
          <mxGeometry x="16.5" y="29" width="99" height="30" as="geometry" />
        </mxCell>
        <mxCell id="DlTOx3frjz-x5bnHoz6K-9" value="Mensagens&lt;br&gt;A-&amp;gt;P" style="text;html=1;align=center;verticalAlign=middle;whiteSpace=wrap;rounded=0;fillColor=none;fontColor=light-dark(#000000,#000000);fontSize=15;" parent="DlTOx3frjz-x5bnHoz6K-4" vertex="1">
          <mxGeometry x="16.5" width="99" height="30" as="geometry" />
        </mxCell>
        <mxCell id="DlTOx3frjz-x5bnHoz6K-10" value="y" style="group" parent="1" vertex="1" connectable="0">
          <mxGeometry x="-609" y="-1547.13" width="90.5" height="29" as="geometry" />
        </mxCell>
        <mxCell id="DlTOx3frjz-x5bnHoz6K-11" value="" style="strokeWidth=2;html=1;shape=mxgraph.flowchart.terminator;whiteSpace=wrap;strokeColor=light-dark(#000000,#C0B652);gradientColor=light-dark(#000000,#CECE08);fillColor=light-dark(#FFFFFF,#FFFFFF);gradientDirection=radial;" parent="DlTOx3frjz-x5bnHoz6K-10" vertex="1">
          <mxGeometry width="90.5" height="29" as="geometry" />
        </mxCell>
        <mxCell id="DlTOx3frjz-x5bnHoz6K-12" value="Timestamp" style="text;html=1;align=center;verticalAlign=middle;whiteSpace=wrap;rounded=0;fillColor=none;fontColor=light-dark(#000000,#000000);fontSize=12;" parent="DlTOx3frjz-x5bnHoz6K-10" vertex="1">
          <mxGeometry x="27" y="9.870000000000005" width="36.5" height="9.25" as="geometry" />
        </mxCell>
        <mxCell id="DlTOx3frjz-x5bnHoz6K-13" value="" style="shape=cross;whiteSpace=wrap;html=1;strokeColor=none;" parent="DlTOx3frjz-x5bnHoz6K-10" vertex="1">
          <mxGeometry x="70" y="-5.999999999999996" width="13" height="14" as="geometry" />
        </mxCell>
        <mxCell id="DlTOx3frjz-x5bnHoz6K-32" value="" style="endArrow=none;html=1;rounded=0;fontSize=12;startSize=8;endSize=8;curved=1;entryX=1;entryY=0.5;entryDx=0;entryDy=0;strokeColor=light-dark(#000000,#000000);strokeWidth=2;exitX=0;exitY=0.5;exitDx=0;exitDy=0;" parent="1" source="DlTOx3frjz-x5bnHoz6K-7" target="sH1HxAaR-ODx4O14QXts-98" edge="1">
          <mxGeometry width="50" height="50" relative="1" as="geometry">
            <mxPoint x="-845" y="-1628" as="sourcePoint" />
            <mxPoint x="-955" y="-1462" as="targetPoint" />
          </mxGeometry>
        </mxCell>
        <mxCell id="DlTOx3frjz-x5bnHoz6K-33" value="" style="endArrow=none;html=1;rounded=0;fontSize=12;startSize=8;endSize=8;curved=1;entryX=1;entryY=0.5;entryDx=0;entryDy=0;strokeColor=light-dark(#000000,#000000);strokeWidth=2;exitX=0;exitY=0.5;exitDx=0;exitDy=0;" parent="1" source="DlTOx3frjz-x5bnHoz6K-34" target="DlTOx3frjz-x5bnHoz6K-7" edge="1">
          <mxGeometry width="50" height="50" relative="1" as="geometry">
            <mxPoint x="-274" y="-1656" as="sourcePoint" />
            <mxPoint x="-372" y="-1603" as="targetPoint" />
          </mxGeometry>
        </mxCell>
        <mxCell id="DlTOx3frjz-x5bnHoz6K-34" value="(0,N)" style="text;html=1;align=center;verticalAlign=middle;whiteSpace=wrap;rounded=0;fillColor=none;fontColor=light-dark(#000000,#000000);fontSize=15;" parent="1" vertex="1">
          <mxGeometry x="-278" y="-1666.5" width="39" height="23" as="geometry" />
        </mxCell>
        <mxCell id="DlTOx3frjz-x5bnHoz6K-35" value="" style="endArrow=none;html=1;rounded=0;fontSize=12;startSize=8;endSize=8;curved=1;strokeColor=light-dark(#000000,#000000);strokeWidth=2;exitX=1;exitY=0.5;exitDx=0;exitDy=0;entryX=0;entryY=0.5;entryDx=0;entryDy=0;" parent="1" source="DlTOx3frjz-x5bnHoz6K-34" target="2LAl9BLSWvAE8NERQg5I-20" edge="1">
          <mxGeometry width="50" height="50" relative="1" as="geometry">
            <mxPoint x="-205" y="-1658" as="sourcePoint" />
            <mxPoint x="-342" y="-1595" as="targetPoint" />
          </mxGeometry>
        </mxCell>
        <mxCell id="DlTOx3frjz-x5bnHoz6K-36" value="" style="group" parent="1" vertex="1" connectable="0">
          <mxGeometry x="-22" y="-560" width="90.5" height="29" as="geometry" />
        </mxCell>
        <mxCell id="DlTOx3frjz-x5bnHoz6K-37" value="" style="strokeWidth=2;html=1;shape=mxgraph.flowchart.terminator;whiteSpace=wrap;strokeColor=light-dark(#000000,#78B300);gradientColor=light-dark(#000000,#A6E500);fillColor=light-dark(#FFFFFF,#FFFFFF);gradientDirection=radial;" parent="DlTOx3frjz-x5bnHoz6K-36" vertex="1">
          <mxGeometry width="90.5" height="29" as="geometry" />
        </mxCell>
        <mxCell id="DlTOx3frjz-x5bnHoz6K-38" value="Pré-requisitos Cursos" style="text;html=1;align=center;verticalAlign=middle;whiteSpace=wrap;rounded=0;fillColor=none;fontColor=light-dark(#000000,#000000);fontSize=12;" parent="DlTOx3frjz-x5bnHoz6K-36" vertex="1">
          <mxGeometry x="6.5" y="9.87" width="77.5" height="9.25" as="geometry" />
        </mxCell>
        <mxCell id="DlTOx3frjz-x5bnHoz6K-39" value="" style="endArrow=none;html=1;rounded=0;strokeColor=light-dark(#000000,#000000);entryX=0.843;entryY=0.092;entryDx=0;entryDy=0;entryPerimeter=0;strokeWidth=2;" parent="DlTOx3frjz-x5bnHoz6K-36" target="DlTOx3frjz-x5bnHoz6K-37" edge="1">
          <mxGeometry width="50" height="50" relative="1" as="geometry">
            <mxPoint x="66" y="28" as="sourcePoint" />
            <mxPoint x="87" y="-8" as="targetPoint" />
          </mxGeometry>
        </mxCell>
        <mxCell id="DlTOx3frjz-x5bnHoz6K-40" value="" style="group" parent="1" vertex="1" connectable="0">
          <mxGeometry x="-22" y="-524" width="90.5" height="29" as="geometry" />
        </mxCell>
        <mxCell id="DlTOx3frjz-x5bnHoz6K-41" value="" style="strokeWidth=2;html=1;shape=mxgraph.flowchart.terminator;whiteSpace=wrap;strokeColor=light-dark(#000000,#78B300);gradientColor=light-dark(#000000,#A6E500);fillColor=light-dark(#FFFFFF,#FFFFFF);gradientDirection=radial;" parent="DlTOx3frjz-x5bnHoz6K-40" vertex="1">
          <mxGeometry width="90.5" height="29" as="geometry" />
        </mxCell>
        <mxCell id="DlTOx3frjz-x5bnHoz6K-42" value="Pré-requisitos Disciplinas" style="text;html=1;align=center;verticalAlign=middle;whiteSpace=wrap;rounded=0;fillColor=none;fontColor=light-dark(#000000,#000000);fontSize=12;" parent="DlTOx3frjz-x5bnHoz6K-40" vertex="1">
          <mxGeometry x="7" y="9.87" width="76.5" height="9.25" as="geometry" />
        </mxCell>
        <mxCell id="DlTOx3frjz-x5bnHoz6K-43" value="" style="endArrow=none;html=1;rounded=0;strokeColor=light-dark(#000000,#000000);entryX=0.843;entryY=0.092;entryDx=0;entryDy=0;entryPerimeter=0;strokeWidth=2;" parent="DlTOx3frjz-x5bnHoz6K-40" target="DlTOx3frjz-x5bnHoz6K-41" edge="1">
          <mxGeometry width="50" height="50" relative="1" as="geometry">
            <mxPoint x="66" y="28" as="sourcePoint" />
            <mxPoint x="87" y="-8" as="targetPoint" />
          </mxGeometry>
        </mxCell>
        <mxCell id="1o5LhvOMmGAg4YOoXspW-1" value="" style="group;fontStyle=1" vertex="1" connectable="0" parent="1">
          <mxGeometry x="-335" y="-2028" width="90.5" height="29" as="geometry" />
        </mxCell>
        <mxCell id="1o5LhvOMmGAg4YOoXspW-2" value="" style="strokeWidth=2;html=1;shape=mxgraph.flowchart.terminator;whiteSpace=wrap;strokeColor=light-dark(#000000,#C0B652);gradientColor=light-dark(#000000,#CECE08);fillColor=light-dark(#FFFFFF,#FFFFFF);gradientDirection=radial;" vertex="1" parent="1o5LhvOMmGAg4YOoXspW-1">
          <mxGeometry width="90.5" height="29" as="geometry" />
        </mxCell>
        <mxCell id="1o5LhvOMmGAg4YOoXspW-3" value="Sexo" style="text;html=1;align=center;verticalAlign=middle;whiteSpace=wrap;rounded=0;fillColor=none;fontColor=light-dark(#000000,#000000);fontSize=12;" vertex="1" parent="1o5LhvOMmGAg4YOoXspW-1">
          <mxGeometry x="27" y="9.870000000000005" width="36.5" height="9.25" as="geometry" />
        </mxCell>
        <mxCell id="1o5LhvOMmGAg4YOoXspW-5" value="" style="group" vertex="1" connectable="0" parent="1">
          <mxGeometry x="-22" y="-489" width="90.5" height="29" as="geometry" />
        </mxCell>
        <mxCell id="1o5LhvOMmGAg4YOoXspW-6" value="" style="strokeWidth=2;html=1;shape=mxgraph.flowchart.terminator;whiteSpace=wrap;strokeColor=light-dark(#000000,#C0B652);gradientColor=light-dark(#000000,#CECE08);fillColor=light-dark(#FFFFFF,#FFFFFF);gradientDirection=radial;" vertex="1" parent="1o5LhvOMmGAg4YOoXspW-5">
          <mxGeometry width="90.5" height="29" as="geometry" />
        </mxCell>
        <mxCell id="1o5LhvOMmGAg4YOoXspW-7" value="Ementa" style="text;html=1;align=center;verticalAlign=middle;whiteSpace=wrap;rounded=0;fillColor=none;fontColor=light-dark(#000000,#000000);fontSize=12;" vertex="1" parent="1o5LhvOMmGAg4YOoXspW-5">
          <mxGeometry x="27" y="9.870000000000005" width="36.5" height="9.25" as="geometry" />
        </mxCell>
        <mxCell id="1o5LhvOMmGAg4YOoXspW-8" value="" style="html=1;shadow=0;dashed=0;align=center;verticalAlign=middle;shape=mxgraph.arrows2.arrow;dy=0.6;dx=40;direction=north;notch=0;" vertex="1" parent="1">
          <mxGeometry x="-428" y="-2055" width="20" height="76" as="geometry" />
        </mxCell>
      </root>
    </mxGraphModel>
  </diagram>
</mxfile>
